%TF.GenerationSoftware,KiCad,Pcbnew,7.0.11+dfsg-1build4*%
%TF.CreationDate,2025-06-01T15:33:21-04:00*%
%TF.ProjectId,tek-cap-pcb,74656b2d-6361-4702-9d70-63622e6b6963,A*%
%TF.SameCoordinates,Original*%
%TF.FileFunction,Drillmap*%
%TF.FilePolarity,Positive*%
%FSLAX45Y45*%
G04 Gerber Fmt 4.5, Leading zero omitted, Abs format (unit mm)*
G04 Created by KiCad (PCBNEW 7.0.11+dfsg-1build4) date 2025-06-01 15:33:21*
%MOMM*%
%LPD*%
G01*
G04 APERTURE LIST*
%ADD10C,0.050000*%
%ADD11C,0.200000*%
%ADD12C,0.250000*%
G04 APERTURE END LIST*
D10*
X14450000Y-10160000D02*
G75*
G03*
X10950000Y-10160000I-1750000J0D01*
G01*
X10950000Y-10160000D02*
G75*
G03*
X14450000Y-10160000I1750000J0D01*
G01*
D11*
X12100000Y-10060000D02*
X12300000Y-10260000D01*
X12300000Y-10060000D02*
X12100000Y-10260000D01*
X13100000Y-10060000D02*
X13300000Y-10260000D01*
X13300000Y-10060000D02*
X13100000Y-10260000D01*
D12*
X11872500Y-9207500D02*
G75*
G03*
X11622500Y-9207500I-125000J0D01*
G01*
X11622500Y-9207500D02*
G75*
G03*
X11872500Y-9207500I125000J0D01*
G01*
X11872500Y-11112500D02*
G75*
G03*
X11622500Y-11112500I-125000J0D01*
G01*
X11622500Y-11112500D02*
G75*
G03*
X11872500Y-11112500I125000J0D01*
G01*
X12825000Y-9321800D02*
G75*
G03*
X12575000Y-9321800I-125000J0D01*
G01*
X12575000Y-9321800D02*
G75*
G03*
X12825000Y-9321800I125000J0D01*
G01*
X13777500Y-9207500D02*
G75*
G03*
X13527500Y-9207500I-125000J0D01*
G01*
X13527500Y-9207500D02*
G75*
G03*
X13777500Y-9207500I125000J0D01*
G01*
X13777500Y-11112500D02*
G75*
G03*
X13527500Y-11112500I-125000J0D01*
G01*
X13527500Y-11112500D02*
G75*
G03*
X13777500Y-11112500I125000J0D01*
G01*
D11*
X11208277Y-12223984D02*
X11208277Y-12023984D01*
X11208277Y-12023984D02*
X11255896Y-12023984D01*
X11255896Y-12023984D02*
X11284467Y-12033508D01*
X11284467Y-12033508D02*
X11303515Y-12052555D01*
X11303515Y-12052555D02*
X11313039Y-12071603D01*
X11313039Y-12071603D02*
X11322562Y-12109698D01*
X11322562Y-12109698D02*
X11322562Y-12138269D01*
X11322562Y-12138269D02*
X11313039Y-12176365D01*
X11313039Y-12176365D02*
X11303515Y-12195412D01*
X11303515Y-12195412D02*
X11284467Y-12214460D01*
X11284467Y-12214460D02*
X11255896Y-12223984D01*
X11255896Y-12223984D02*
X11208277Y-12223984D01*
X11408277Y-12223984D02*
X11408277Y-12090650D01*
X11408277Y-12128746D02*
X11417801Y-12109698D01*
X11417801Y-12109698D02*
X11427324Y-12100174D01*
X11427324Y-12100174D02*
X11446372Y-12090650D01*
X11446372Y-12090650D02*
X11465420Y-12090650D01*
X11532086Y-12223984D02*
X11532086Y-12090650D01*
X11532086Y-12023984D02*
X11522562Y-12033508D01*
X11522562Y-12033508D02*
X11532086Y-12043031D01*
X11532086Y-12043031D02*
X11541610Y-12033508D01*
X11541610Y-12033508D02*
X11532086Y-12023984D01*
X11532086Y-12023984D02*
X11532086Y-12043031D01*
X11655896Y-12223984D02*
X11636848Y-12214460D01*
X11636848Y-12214460D02*
X11627324Y-12195412D01*
X11627324Y-12195412D02*
X11627324Y-12023984D01*
X11760658Y-12223984D02*
X11741610Y-12214460D01*
X11741610Y-12214460D02*
X11732086Y-12195412D01*
X11732086Y-12195412D02*
X11732086Y-12023984D01*
X11989229Y-12223984D02*
X11989229Y-12023984D01*
X11989229Y-12023984D02*
X12055896Y-12166841D01*
X12055896Y-12166841D02*
X12122562Y-12023984D01*
X12122562Y-12023984D02*
X12122562Y-12223984D01*
X12303515Y-12223984D02*
X12303515Y-12119222D01*
X12303515Y-12119222D02*
X12293991Y-12100174D01*
X12293991Y-12100174D02*
X12274943Y-12090650D01*
X12274943Y-12090650D02*
X12236848Y-12090650D01*
X12236848Y-12090650D02*
X12217801Y-12100174D01*
X12303515Y-12214460D02*
X12284467Y-12223984D01*
X12284467Y-12223984D02*
X12236848Y-12223984D01*
X12236848Y-12223984D02*
X12217801Y-12214460D01*
X12217801Y-12214460D02*
X12208277Y-12195412D01*
X12208277Y-12195412D02*
X12208277Y-12176365D01*
X12208277Y-12176365D02*
X12217801Y-12157317D01*
X12217801Y-12157317D02*
X12236848Y-12147793D01*
X12236848Y-12147793D02*
X12284467Y-12147793D01*
X12284467Y-12147793D02*
X12303515Y-12138269D01*
X12398753Y-12090650D02*
X12398753Y-12290650D01*
X12398753Y-12100174D02*
X12417801Y-12090650D01*
X12417801Y-12090650D02*
X12455896Y-12090650D01*
X12455896Y-12090650D02*
X12474943Y-12100174D01*
X12474943Y-12100174D02*
X12484467Y-12109698D01*
X12484467Y-12109698D02*
X12493991Y-12128746D01*
X12493991Y-12128746D02*
X12493991Y-12185888D01*
X12493991Y-12185888D02*
X12484467Y-12204936D01*
X12484467Y-12204936D02*
X12474943Y-12214460D01*
X12474943Y-12214460D02*
X12455896Y-12223984D01*
X12455896Y-12223984D02*
X12417801Y-12223984D01*
X12417801Y-12223984D02*
X12398753Y-12214460D01*
X12579705Y-12204936D02*
X12589229Y-12214460D01*
X12589229Y-12214460D02*
X12579705Y-12223984D01*
X12579705Y-12223984D02*
X12570182Y-12214460D01*
X12570182Y-12214460D02*
X12579705Y-12204936D01*
X12579705Y-12204936D02*
X12579705Y-12223984D01*
X12579705Y-12100174D02*
X12589229Y-12109698D01*
X12589229Y-12109698D02*
X12579705Y-12119222D01*
X12579705Y-12119222D02*
X12570182Y-12109698D01*
X12570182Y-12109698D02*
X12579705Y-12100174D01*
X12579705Y-12100174D02*
X12579705Y-12119222D01*
X10747500Y-12452500D02*
X10947500Y-12652500D01*
X10947500Y-12452500D02*
X10747500Y-12652500D01*
X11198753Y-12463031D02*
X11208277Y-12453508D01*
X11208277Y-12453508D02*
X11227324Y-12443984D01*
X11227324Y-12443984D02*
X11274943Y-12443984D01*
X11274943Y-12443984D02*
X11293991Y-12453508D01*
X11293991Y-12453508D02*
X11303515Y-12463031D01*
X11303515Y-12463031D02*
X11313039Y-12482079D01*
X11313039Y-12482079D02*
X11313039Y-12501127D01*
X11313039Y-12501127D02*
X11303515Y-12529698D01*
X11303515Y-12529698D02*
X11189229Y-12643984D01*
X11189229Y-12643984D02*
X11313039Y-12643984D01*
X11398753Y-12624936D02*
X11408277Y-12634460D01*
X11408277Y-12634460D02*
X11398753Y-12643984D01*
X11398753Y-12643984D02*
X11389229Y-12634460D01*
X11389229Y-12634460D02*
X11398753Y-12624936D01*
X11398753Y-12624936D02*
X11398753Y-12643984D01*
X11532086Y-12443984D02*
X11551134Y-12443984D01*
X11551134Y-12443984D02*
X11570182Y-12453508D01*
X11570182Y-12453508D02*
X11579705Y-12463031D01*
X11579705Y-12463031D02*
X11589229Y-12482079D01*
X11589229Y-12482079D02*
X11598753Y-12520174D01*
X11598753Y-12520174D02*
X11598753Y-12567793D01*
X11598753Y-12567793D02*
X11589229Y-12605888D01*
X11589229Y-12605888D02*
X11579705Y-12624936D01*
X11579705Y-12624936D02*
X11570182Y-12634460D01*
X11570182Y-12634460D02*
X11551134Y-12643984D01*
X11551134Y-12643984D02*
X11532086Y-12643984D01*
X11532086Y-12643984D02*
X11513039Y-12634460D01*
X11513039Y-12634460D02*
X11503515Y-12624936D01*
X11503515Y-12624936D02*
X11493991Y-12605888D01*
X11493991Y-12605888D02*
X11484467Y-12567793D01*
X11484467Y-12567793D02*
X11484467Y-12520174D01*
X11484467Y-12520174D02*
X11493991Y-12482079D01*
X11493991Y-12482079D02*
X11503515Y-12463031D01*
X11503515Y-12463031D02*
X11513039Y-12453508D01*
X11513039Y-12453508D02*
X11532086Y-12443984D01*
X11722562Y-12443984D02*
X11741610Y-12443984D01*
X11741610Y-12443984D02*
X11760658Y-12453508D01*
X11760658Y-12453508D02*
X11770182Y-12463031D01*
X11770182Y-12463031D02*
X11779705Y-12482079D01*
X11779705Y-12482079D02*
X11789229Y-12520174D01*
X11789229Y-12520174D02*
X11789229Y-12567793D01*
X11789229Y-12567793D02*
X11779705Y-12605888D01*
X11779705Y-12605888D02*
X11770182Y-12624936D01*
X11770182Y-12624936D02*
X11760658Y-12634460D01*
X11760658Y-12634460D02*
X11741610Y-12643984D01*
X11741610Y-12643984D02*
X11722562Y-12643984D01*
X11722562Y-12643984D02*
X11703515Y-12634460D01*
X11703515Y-12634460D02*
X11693991Y-12624936D01*
X11693991Y-12624936D02*
X11684467Y-12605888D01*
X11684467Y-12605888D02*
X11674943Y-12567793D01*
X11674943Y-12567793D02*
X11674943Y-12520174D01*
X11674943Y-12520174D02*
X11684467Y-12482079D01*
X11684467Y-12482079D02*
X11693991Y-12463031D01*
X11693991Y-12463031D02*
X11703515Y-12453508D01*
X11703515Y-12453508D02*
X11722562Y-12443984D01*
X11913039Y-12443984D02*
X11932086Y-12443984D01*
X11932086Y-12443984D02*
X11951134Y-12453508D01*
X11951134Y-12453508D02*
X11960658Y-12463031D01*
X11960658Y-12463031D02*
X11970182Y-12482079D01*
X11970182Y-12482079D02*
X11979705Y-12520174D01*
X11979705Y-12520174D02*
X11979705Y-12567793D01*
X11979705Y-12567793D02*
X11970182Y-12605888D01*
X11970182Y-12605888D02*
X11960658Y-12624936D01*
X11960658Y-12624936D02*
X11951134Y-12634460D01*
X11951134Y-12634460D02*
X11932086Y-12643984D01*
X11932086Y-12643984D02*
X11913039Y-12643984D01*
X11913039Y-12643984D02*
X11893991Y-12634460D01*
X11893991Y-12634460D02*
X11884467Y-12624936D01*
X11884467Y-12624936D02*
X11874943Y-12605888D01*
X11874943Y-12605888D02*
X11865420Y-12567793D01*
X11865420Y-12567793D02*
X11865420Y-12520174D01*
X11865420Y-12520174D02*
X11874943Y-12482079D01*
X11874943Y-12482079D02*
X11884467Y-12463031D01*
X11884467Y-12463031D02*
X11893991Y-12453508D01*
X11893991Y-12453508D02*
X11913039Y-12443984D01*
X12065420Y-12643984D02*
X12065420Y-12510650D01*
X12065420Y-12529698D02*
X12074943Y-12520174D01*
X12074943Y-12520174D02*
X12093991Y-12510650D01*
X12093991Y-12510650D02*
X12122563Y-12510650D01*
X12122563Y-12510650D02*
X12141610Y-12520174D01*
X12141610Y-12520174D02*
X12151134Y-12539222D01*
X12151134Y-12539222D02*
X12151134Y-12643984D01*
X12151134Y-12539222D02*
X12160658Y-12520174D01*
X12160658Y-12520174D02*
X12179705Y-12510650D01*
X12179705Y-12510650D02*
X12208277Y-12510650D01*
X12208277Y-12510650D02*
X12227324Y-12520174D01*
X12227324Y-12520174D02*
X12236848Y-12539222D01*
X12236848Y-12539222D02*
X12236848Y-12643984D01*
X12332086Y-12643984D02*
X12332086Y-12510650D01*
X12332086Y-12529698D02*
X12341610Y-12520174D01*
X12341610Y-12520174D02*
X12360658Y-12510650D01*
X12360658Y-12510650D02*
X12389229Y-12510650D01*
X12389229Y-12510650D02*
X12408277Y-12520174D01*
X12408277Y-12520174D02*
X12417801Y-12539222D01*
X12417801Y-12539222D02*
X12417801Y-12643984D01*
X12417801Y-12539222D02*
X12427324Y-12520174D01*
X12427324Y-12520174D02*
X12446372Y-12510650D01*
X12446372Y-12510650D02*
X12474943Y-12510650D01*
X12474943Y-12510650D02*
X12493991Y-12520174D01*
X12493991Y-12520174D02*
X12503515Y-12539222D01*
X12503515Y-12539222D02*
X12503515Y-12643984D01*
X12893991Y-12434460D02*
X12722563Y-12691603D01*
X13151134Y-12443984D02*
X13170182Y-12443984D01*
X13170182Y-12443984D02*
X13189229Y-12453508D01*
X13189229Y-12453508D02*
X13198753Y-12463031D01*
X13198753Y-12463031D02*
X13208277Y-12482079D01*
X13208277Y-12482079D02*
X13217801Y-12520174D01*
X13217801Y-12520174D02*
X13217801Y-12567793D01*
X13217801Y-12567793D02*
X13208277Y-12605888D01*
X13208277Y-12605888D02*
X13198753Y-12624936D01*
X13198753Y-12624936D02*
X13189229Y-12634460D01*
X13189229Y-12634460D02*
X13170182Y-12643984D01*
X13170182Y-12643984D02*
X13151134Y-12643984D01*
X13151134Y-12643984D02*
X13132086Y-12634460D01*
X13132086Y-12634460D02*
X13122563Y-12624936D01*
X13122563Y-12624936D02*
X13113039Y-12605888D01*
X13113039Y-12605888D02*
X13103515Y-12567793D01*
X13103515Y-12567793D02*
X13103515Y-12520174D01*
X13103515Y-12520174D02*
X13113039Y-12482079D01*
X13113039Y-12482079D02*
X13122563Y-12463031D01*
X13122563Y-12463031D02*
X13132086Y-12453508D01*
X13132086Y-12453508D02*
X13151134Y-12443984D01*
X13303515Y-12624936D02*
X13313039Y-12634460D01*
X13313039Y-12634460D02*
X13303515Y-12643984D01*
X13303515Y-12643984D02*
X13293991Y-12634460D01*
X13293991Y-12634460D02*
X13303515Y-12624936D01*
X13303515Y-12624936D02*
X13303515Y-12643984D01*
X13436848Y-12443984D02*
X13455896Y-12443984D01*
X13455896Y-12443984D02*
X13474944Y-12453508D01*
X13474944Y-12453508D02*
X13484467Y-12463031D01*
X13484467Y-12463031D02*
X13493991Y-12482079D01*
X13493991Y-12482079D02*
X13503515Y-12520174D01*
X13503515Y-12520174D02*
X13503515Y-12567793D01*
X13503515Y-12567793D02*
X13493991Y-12605888D01*
X13493991Y-12605888D02*
X13484467Y-12624936D01*
X13484467Y-12624936D02*
X13474944Y-12634460D01*
X13474944Y-12634460D02*
X13455896Y-12643984D01*
X13455896Y-12643984D02*
X13436848Y-12643984D01*
X13436848Y-12643984D02*
X13417801Y-12634460D01*
X13417801Y-12634460D02*
X13408277Y-12624936D01*
X13408277Y-12624936D02*
X13398753Y-12605888D01*
X13398753Y-12605888D02*
X13389229Y-12567793D01*
X13389229Y-12567793D02*
X13389229Y-12520174D01*
X13389229Y-12520174D02*
X13398753Y-12482079D01*
X13398753Y-12482079D02*
X13408277Y-12463031D01*
X13408277Y-12463031D02*
X13417801Y-12453508D01*
X13417801Y-12453508D02*
X13436848Y-12443984D01*
X13570182Y-12443984D02*
X13703515Y-12443984D01*
X13703515Y-12443984D02*
X13617801Y-12643984D01*
X13808277Y-12529698D02*
X13789229Y-12520174D01*
X13789229Y-12520174D02*
X13779706Y-12510650D01*
X13779706Y-12510650D02*
X13770182Y-12491603D01*
X13770182Y-12491603D02*
X13770182Y-12482079D01*
X13770182Y-12482079D02*
X13779706Y-12463031D01*
X13779706Y-12463031D02*
X13789229Y-12453508D01*
X13789229Y-12453508D02*
X13808277Y-12443984D01*
X13808277Y-12443984D02*
X13846372Y-12443984D01*
X13846372Y-12443984D02*
X13865420Y-12453508D01*
X13865420Y-12453508D02*
X13874944Y-12463031D01*
X13874944Y-12463031D02*
X13884467Y-12482079D01*
X13884467Y-12482079D02*
X13884467Y-12491603D01*
X13884467Y-12491603D02*
X13874944Y-12510650D01*
X13874944Y-12510650D02*
X13865420Y-12520174D01*
X13865420Y-12520174D02*
X13846372Y-12529698D01*
X13846372Y-12529698D02*
X13808277Y-12529698D01*
X13808277Y-12529698D02*
X13789229Y-12539222D01*
X13789229Y-12539222D02*
X13779706Y-12548746D01*
X13779706Y-12548746D02*
X13770182Y-12567793D01*
X13770182Y-12567793D02*
X13770182Y-12605888D01*
X13770182Y-12605888D02*
X13779706Y-12624936D01*
X13779706Y-12624936D02*
X13789229Y-12634460D01*
X13789229Y-12634460D02*
X13808277Y-12643984D01*
X13808277Y-12643984D02*
X13846372Y-12643984D01*
X13846372Y-12643984D02*
X13865420Y-12634460D01*
X13865420Y-12634460D02*
X13874944Y-12624936D01*
X13874944Y-12624936D02*
X13884467Y-12605888D01*
X13884467Y-12605888D02*
X13884467Y-12567793D01*
X13884467Y-12567793D02*
X13874944Y-12548746D01*
X13874944Y-12548746D02*
X13865420Y-12539222D01*
X13865420Y-12539222D02*
X13846372Y-12529698D01*
X13951134Y-12443984D02*
X14084467Y-12443984D01*
X14084467Y-12443984D02*
X13998753Y-12643984D01*
X14151134Y-12443984D02*
X14151134Y-12482079D01*
X14227325Y-12443984D02*
X14227325Y-12482079D01*
X14522563Y-12720174D02*
X14513039Y-12710650D01*
X14513039Y-12710650D02*
X14493991Y-12682079D01*
X14493991Y-12682079D02*
X14484468Y-12663031D01*
X14484468Y-12663031D02*
X14474944Y-12634460D01*
X14474944Y-12634460D02*
X14465420Y-12586841D01*
X14465420Y-12586841D02*
X14465420Y-12548746D01*
X14465420Y-12548746D02*
X14474944Y-12501127D01*
X14474944Y-12501127D02*
X14484468Y-12472555D01*
X14484468Y-12472555D02*
X14493991Y-12453508D01*
X14493991Y-12453508D02*
X14513039Y-12424936D01*
X14513039Y-12424936D02*
X14522563Y-12415412D01*
X14589229Y-12463031D02*
X14598753Y-12453508D01*
X14598753Y-12453508D02*
X14617801Y-12443984D01*
X14617801Y-12443984D02*
X14665420Y-12443984D01*
X14665420Y-12443984D02*
X14684468Y-12453508D01*
X14684468Y-12453508D02*
X14693991Y-12463031D01*
X14693991Y-12463031D02*
X14703515Y-12482079D01*
X14703515Y-12482079D02*
X14703515Y-12501127D01*
X14703515Y-12501127D02*
X14693991Y-12529698D01*
X14693991Y-12529698D02*
X14579706Y-12643984D01*
X14579706Y-12643984D02*
X14703515Y-12643984D01*
X14941610Y-12643984D02*
X14941610Y-12443984D01*
X15027325Y-12643984D02*
X15027325Y-12539222D01*
X15027325Y-12539222D02*
X15017801Y-12520174D01*
X15017801Y-12520174D02*
X14998753Y-12510650D01*
X14998753Y-12510650D02*
X14970182Y-12510650D01*
X14970182Y-12510650D02*
X14951134Y-12520174D01*
X14951134Y-12520174D02*
X14941610Y-12529698D01*
X15151134Y-12643984D02*
X15132087Y-12634460D01*
X15132087Y-12634460D02*
X15122563Y-12624936D01*
X15122563Y-12624936D02*
X15113039Y-12605888D01*
X15113039Y-12605888D02*
X15113039Y-12548746D01*
X15113039Y-12548746D02*
X15122563Y-12529698D01*
X15122563Y-12529698D02*
X15132087Y-12520174D01*
X15132087Y-12520174D02*
X15151134Y-12510650D01*
X15151134Y-12510650D02*
X15179706Y-12510650D01*
X15179706Y-12510650D02*
X15198753Y-12520174D01*
X15198753Y-12520174D02*
X15208277Y-12529698D01*
X15208277Y-12529698D02*
X15217801Y-12548746D01*
X15217801Y-12548746D02*
X15217801Y-12605888D01*
X15217801Y-12605888D02*
X15208277Y-12624936D01*
X15208277Y-12624936D02*
X15198753Y-12634460D01*
X15198753Y-12634460D02*
X15179706Y-12643984D01*
X15179706Y-12643984D02*
X15151134Y-12643984D01*
X15332087Y-12643984D02*
X15313039Y-12634460D01*
X15313039Y-12634460D02*
X15303515Y-12615412D01*
X15303515Y-12615412D02*
X15303515Y-12443984D01*
X15484468Y-12634460D02*
X15465420Y-12643984D01*
X15465420Y-12643984D02*
X15427325Y-12643984D01*
X15427325Y-12643984D02*
X15408277Y-12634460D01*
X15408277Y-12634460D02*
X15398753Y-12615412D01*
X15398753Y-12615412D02*
X15398753Y-12539222D01*
X15398753Y-12539222D02*
X15408277Y-12520174D01*
X15408277Y-12520174D02*
X15427325Y-12510650D01*
X15427325Y-12510650D02*
X15465420Y-12510650D01*
X15465420Y-12510650D02*
X15484468Y-12520174D01*
X15484468Y-12520174D02*
X15493991Y-12539222D01*
X15493991Y-12539222D02*
X15493991Y-12558269D01*
X15493991Y-12558269D02*
X15398753Y-12577317D01*
X15570182Y-12634460D02*
X15589230Y-12643984D01*
X15589230Y-12643984D02*
X15627325Y-12643984D01*
X15627325Y-12643984D02*
X15646372Y-12634460D01*
X15646372Y-12634460D02*
X15655896Y-12615412D01*
X15655896Y-12615412D02*
X15655896Y-12605888D01*
X15655896Y-12605888D02*
X15646372Y-12586841D01*
X15646372Y-12586841D02*
X15627325Y-12577317D01*
X15627325Y-12577317D02*
X15598753Y-12577317D01*
X15598753Y-12577317D02*
X15579706Y-12567793D01*
X15579706Y-12567793D02*
X15570182Y-12548746D01*
X15570182Y-12548746D02*
X15570182Y-12539222D01*
X15570182Y-12539222D02*
X15579706Y-12520174D01*
X15579706Y-12520174D02*
X15598753Y-12510650D01*
X15598753Y-12510650D02*
X15627325Y-12510650D01*
X15627325Y-12510650D02*
X15646372Y-12520174D01*
X15722563Y-12720174D02*
X15732087Y-12710650D01*
X15732087Y-12710650D02*
X15751134Y-12682079D01*
X15751134Y-12682079D02*
X15760658Y-12663031D01*
X15760658Y-12663031D02*
X15770182Y-12634460D01*
X15770182Y-12634460D02*
X15779706Y-12586841D01*
X15779706Y-12586841D02*
X15779706Y-12548746D01*
X15779706Y-12548746D02*
X15770182Y-12501127D01*
X15770182Y-12501127D02*
X15760658Y-12472555D01*
X15760658Y-12472555D02*
X15751134Y-12453508D01*
X15751134Y-12453508D02*
X15732087Y-12424936D01*
X15732087Y-12424936D02*
X15722563Y-12415412D01*
X10947500Y-12872500D02*
G75*
G03*
X10747500Y-12872500I-100000J0D01*
G01*
X10747500Y-12872500D02*
G75*
G03*
X10947500Y-12872500I100000J0D01*
G01*
X11198753Y-12783031D02*
X11208277Y-12773508D01*
X11208277Y-12773508D02*
X11227324Y-12763984D01*
X11227324Y-12763984D02*
X11274943Y-12763984D01*
X11274943Y-12763984D02*
X11293991Y-12773508D01*
X11293991Y-12773508D02*
X11303515Y-12783031D01*
X11303515Y-12783031D02*
X11313039Y-12802079D01*
X11313039Y-12802079D02*
X11313039Y-12821127D01*
X11313039Y-12821127D02*
X11303515Y-12849698D01*
X11303515Y-12849698D02*
X11189229Y-12963984D01*
X11189229Y-12963984D02*
X11313039Y-12963984D01*
X11398753Y-12944936D02*
X11408277Y-12954460D01*
X11408277Y-12954460D02*
X11398753Y-12963984D01*
X11398753Y-12963984D02*
X11389229Y-12954460D01*
X11389229Y-12954460D02*
X11398753Y-12944936D01*
X11398753Y-12944936D02*
X11398753Y-12963984D01*
X11589229Y-12763984D02*
X11493991Y-12763984D01*
X11493991Y-12763984D02*
X11484467Y-12859222D01*
X11484467Y-12859222D02*
X11493991Y-12849698D01*
X11493991Y-12849698D02*
X11513039Y-12840174D01*
X11513039Y-12840174D02*
X11560658Y-12840174D01*
X11560658Y-12840174D02*
X11579705Y-12849698D01*
X11579705Y-12849698D02*
X11589229Y-12859222D01*
X11589229Y-12859222D02*
X11598753Y-12878269D01*
X11598753Y-12878269D02*
X11598753Y-12925888D01*
X11598753Y-12925888D02*
X11589229Y-12944936D01*
X11589229Y-12944936D02*
X11579705Y-12954460D01*
X11579705Y-12954460D02*
X11560658Y-12963984D01*
X11560658Y-12963984D02*
X11513039Y-12963984D01*
X11513039Y-12963984D02*
X11493991Y-12954460D01*
X11493991Y-12954460D02*
X11484467Y-12944936D01*
X11722562Y-12763984D02*
X11741610Y-12763984D01*
X11741610Y-12763984D02*
X11760658Y-12773508D01*
X11760658Y-12773508D02*
X11770182Y-12783031D01*
X11770182Y-12783031D02*
X11779705Y-12802079D01*
X11779705Y-12802079D02*
X11789229Y-12840174D01*
X11789229Y-12840174D02*
X11789229Y-12887793D01*
X11789229Y-12887793D02*
X11779705Y-12925888D01*
X11779705Y-12925888D02*
X11770182Y-12944936D01*
X11770182Y-12944936D02*
X11760658Y-12954460D01*
X11760658Y-12954460D02*
X11741610Y-12963984D01*
X11741610Y-12963984D02*
X11722562Y-12963984D01*
X11722562Y-12963984D02*
X11703515Y-12954460D01*
X11703515Y-12954460D02*
X11693991Y-12944936D01*
X11693991Y-12944936D02*
X11684467Y-12925888D01*
X11684467Y-12925888D02*
X11674943Y-12887793D01*
X11674943Y-12887793D02*
X11674943Y-12840174D01*
X11674943Y-12840174D02*
X11684467Y-12802079D01*
X11684467Y-12802079D02*
X11693991Y-12783031D01*
X11693991Y-12783031D02*
X11703515Y-12773508D01*
X11703515Y-12773508D02*
X11722562Y-12763984D01*
X11913039Y-12763984D02*
X11932086Y-12763984D01*
X11932086Y-12763984D02*
X11951134Y-12773508D01*
X11951134Y-12773508D02*
X11960658Y-12783031D01*
X11960658Y-12783031D02*
X11970182Y-12802079D01*
X11970182Y-12802079D02*
X11979705Y-12840174D01*
X11979705Y-12840174D02*
X11979705Y-12887793D01*
X11979705Y-12887793D02*
X11970182Y-12925888D01*
X11970182Y-12925888D02*
X11960658Y-12944936D01*
X11960658Y-12944936D02*
X11951134Y-12954460D01*
X11951134Y-12954460D02*
X11932086Y-12963984D01*
X11932086Y-12963984D02*
X11913039Y-12963984D01*
X11913039Y-12963984D02*
X11893991Y-12954460D01*
X11893991Y-12954460D02*
X11884467Y-12944936D01*
X11884467Y-12944936D02*
X11874943Y-12925888D01*
X11874943Y-12925888D02*
X11865420Y-12887793D01*
X11865420Y-12887793D02*
X11865420Y-12840174D01*
X11865420Y-12840174D02*
X11874943Y-12802079D01*
X11874943Y-12802079D02*
X11884467Y-12783031D01*
X11884467Y-12783031D02*
X11893991Y-12773508D01*
X11893991Y-12773508D02*
X11913039Y-12763984D01*
X12065420Y-12963984D02*
X12065420Y-12830650D01*
X12065420Y-12849698D02*
X12074943Y-12840174D01*
X12074943Y-12840174D02*
X12093991Y-12830650D01*
X12093991Y-12830650D02*
X12122563Y-12830650D01*
X12122563Y-12830650D02*
X12141610Y-12840174D01*
X12141610Y-12840174D02*
X12151134Y-12859222D01*
X12151134Y-12859222D02*
X12151134Y-12963984D01*
X12151134Y-12859222D02*
X12160658Y-12840174D01*
X12160658Y-12840174D02*
X12179705Y-12830650D01*
X12179705Y-12830650D02*
X12208277Y-12830650D01*
X12208277Y-12830650D02*
X12227324Y-12840174D01*
X12227324Y-12840174D02*
X12236848Y-12859222D01*
X12236848Y-12859222D02*
X12236848Y-12963984D01*
X12332086Y-12963984D02*
X12332086Y-12830650D01*
X12332086Y-12849698D02*
X12341610Y-12840174D01*
X12341610Y-12840174D02*
X12360658Y-12830650D01*
X12360658Y-12830650D02*
X12389229Y-12830650D01*
X12389229Y-12830650D02*
X12408277Y-12840174D01*
X12408277Y-12840174D02*
X12417801Y-12859222D01*
X12417801Y-12859222D02*
X12417801Y-12963984D01*
X12417801Y-12859222D02*
X12427324Y-12840174D01*
X12427324Y-12840174D02*
X12446372Y-12830650D01*
X12446372Y-12830650D02*
X12474943Y-12830650D01*
X12474943Y-12830650D02*
X12493991Y-12840174D01*
X12493991Y-12840174D02*
X12503515Y-12859222D01*
X12503515Y-12859222D02*
X12503515Y-12963984D01*
X12893991Y-12754460D02*
X12722563Y-13011603D01*
X13151134Y-12763984D02*
X13170182Y-12763984D01*
X13170182Y-12763984D02*
X13189229Y-12773508D01*
X13189229Y-12773508D02*
X13198753Y-12783031D01*
X13198753Y-12783031D02*
X13208277Y-12802079D01*
X13208277Y-12802079D02*
X13217801Y-12840174D01*
X13217801Y-12840174D02*
X13217801Y-12887793D01*
X13217801Y-12887793D02*
X13208277Y-12925888D01*
X13208277Y-12925888D02*
X13198753Y-12944936D01*
X13198753Y-12944936D02*
X13189229Y-12954460D01*
X13189229Y-12954460D02*
X13170182Y-12963984D01*
X13170182Y-12963984D02*
X13151134Y-12963984D01*
X13151134Y-12963984D02*
X13132086Y-12954460D01*
X13132086Y-12954460D02*
X13122563Y-12944936D01*
X13122563Y-12944936D02*
X13113039Y-12925888D01*
X13113039Y-12925888D02*
X13103515Y-12887793D01*
X13103515Y-12887793D02*
X13103515Y-12840174D01*
X13103515Y-12840174D02*
X13113039Y-12802079D01*
X13113039Y-12802079D02*
X13122563Y-12783031D01*
X13122563Y-12783031D02*
X13132086Y-12773508D01*
X13132086Y-12773508D02*
X13151134Y-12763984D01*
X13303515Y-12944936D02*
X13313039Y-12954460D01*
X13313039Y-12954460D02*
X13303515Y-12963984D01*
X13303515Y-12963984D02*
X13293991Y-12954460D01*
X13293991Y-12954460D02*
X13303515Y-12944936D01*
X13303515Y-12944936D02*
X13303515Y-12963984D01*
X13436848Y-12763984D02*
X13455896Y-12763984D01*
X13455896Y-12763984D02*
X13474944Y-12773508D01*
X13474944Y-12773508D02*
X13484467Y-12783031D01*
X13484467Y-12783031D02*
X13493991Y-12802079D01*
X13493991Y-12802079D02*
X13503515Y-12840174D01*
X13503515Y-12840174D02*
X13503515Y-12887793D01*
X13503515Y-12887793D02*
X13493991Y-12925888D01*
X13493991Y-12925888D02*
X13484467Y-12944936D01*
X13484467Y-12944936D02*
X13474944Y-12954460D01*
X13474944Y-12954460D02*
X13455896Y-12963984D01*
X13455896Y-12963984D02*
X13436848Y-12963984D01*
X13436848Y-12963984D02*
X13417801Y-12954460D01*
X13417801Y-12954460D02*
X13408277Y-12944936D01*
X13408277Y-12944936D02*
X13398753Y-12925888D01*
X13398753Y-12925888D02*
X13389229Y-12887793D01*
X13389229Y-12887793D02*
X13389229Y-12840174D01*
X13389229Y-12840174D02*
X13398753Y-12802079D01*
X13398753Y-12802079D02*
X13408277Y-12783031D01*
X13408277Y-12783031D02*
X13417801Y-12773508D01*
X13417801Y-12773508D02*
X13436848Y-12763984D01*
X13598753Y-12963984D02*
X13636848Y-12963984D01*
X13636848Y-12963984D02*
X13655896Y-12954460D01*
X13655896Y-12954460D02*
X13665420Y-12944936D01*
X13665420Y-12944936D02*
X13684467Y-12916365D01*
X13684467Y-12916365D02*
X13693991Y-12878269D01*
X13693991Y-12878269D02*
X13693991Y-12802079D01*
X13693991Y-12802079D02*
X13684467Y-12783031D01*
X13684467Y-12783031D02*
X13674944Y-12773508D01*
X13674944Y-12773508D02*
X13655896Y-12763984D01*
X13655896Y-12763984D02*
X13617801Y-12763984D01*
X13617801Y-12763984D02*
X13598753Y-12773508D01*
X13598753Y-12773508D02*
X13589229Y-12783031D01*
X13589229Y-12783031D02*
X13579706Y-12802079D01*
X13579706Y-12802079D02*
X13579706Y-12849698D01*
X13579706Y-12849698D02*
X13589229Y-12868746D01*
X13589229Y-12868746D02*
X13598753Y-12878269D01*
X13598753Y-12878269D02*
X13617801Y-12887793D01*
X13617801Y-12887793D02*
X13655896Y-12887793D01*
X13655896Y-12887793D02*
X13674944Y-12878269D01*
X13674944Y-12878269D02*
X13684467Y-12868746D01*
X13684467Y-12868746D02*
X13693991Y-12849698D01*
X13808277Y-12849698D02*
X13789229Y-12840174D01*
X13789229Y-12840174D02*
X13779706Y-12830650D01*
X13779706Y-12830650D02*
X13770182Y-12811603D01*
X13770182Y-12811603D02*
X13770182Y-12802079D01*
X13770182Y-12802079D02*
X13779706Y-12783031D01*
X13779706Y-12783031D02*
X13789229Y-12773508D01*
X13789229Y-12773508D02*
X13808277Y-12763984D01*
X13808277Y-12763984D02*
X13846372Y-12763984D01*
X13846372Y-12763984D02*
X13865420Y-12773508D01*
X13865420Y-12773508D02*
X13874944Y-12783031D01*
X13874944Y-12783031D02*
X13884467Y-12802079D01*
X13884467Y-12802079D02*
X13884467Y-12811603D01*
X13884467Y-12811603D02*
X13874944Y-12830650D01*
X13874944Y-12830650D02*
X13865420Y-12840174D01*
X13865420Y-12840174D02*
X13846372Y-12849698D01*
X13846372Y-12849698D02*
X13808277Y-12849698D01*
X13808277Y-12849698D02*
X13789229Y-12859222D01*
X13789229Y-12859222D02*
X13779706Y-12868746D01*
X13779706Y-12868746D02*
X13770182Y-12887793D01*
X13770182Y-12887793D02*
X13770182Y-12925888D01*
X13770182Y-12925888D02*
X13779706Y-12944936D01*
X13779706Y-12944936D02*
X13789229Y-12954460D01*
X13789229Y-12954460D02*
X13808277Y-12963984D01*
X13808277Y-12963984D02*
X13846372Y-12963984D01*
X13846372Y-12963984D02*
X13865420Y-12954460D01*
X13865420Y-12954460D02*
X13874944Y-12944936D01*
X13874944Y-12944936D02*
X13884467Y-12925888D01*
X13884467Y-12925888D02*
X13884467Y-12887793D01*
X13884467Y-12887793D02*
X13874944Y-12868746D01*
X13874944Y-12868746D02*
X13865420Y-12859222D01*
X13865420Y-12859222D02*
X13846372Y-12849698D01*
X14055896Y-12830650D02*
X14055896Y-12963984D01*
X14008277Y-12754460D02*
X13960658Y-12897317D01*
X13960658Y-12897317D02*
X14084467Y-12897317D01*
X14151134Y-12763984D02*
X14151134Y-12802079D01*
X14227325Y-12763984D02*
X14227325Y-12802079D01*
X14522563Y-13040174D02*
X14513039Y-13030650D01*
X14513039Y-13030650D02*
X14493991Y-13002079D01*
X14493991Y-13002079D02*
X14484468Y-12983031D01*
X14484468Y-12983031D02*
X14474944Y-12954460D01*
X14474944Y-12954460D02*
X14465420Y-12906841D01*
X14465420Y-12906841D02*
X14465420Y-12868746D01*
X14465420Y-12868746D02*
X14474944Y-12821127D01*
X14474944Y-12821127D02*
X14484468Y-12792555D01*
X14484468Y-12792555D02*
X14493991Y-12773508D01*
X14493991Y-12773508D02*
X14513039Y-12744936D01*
X14513039Y-12744936D02*
X14522563Y-12735412D01*
X14693991Y-12763984D02*
X14598753Y-12763984D01*
X14598753Y-12763984D02*
X14589229Y-12859222D01*
X14589229Y-12859222D02*
X14598753Y-12849698D01*
X14598753Y-12849698D02*
X14617801Y-12840174D01*
X14617801Y-12840174D02*
X14665420Y-12840174D01*
X14665420Y-12840174D02*
X14684468Y-12849698D01*
X14684468Y-12849698D02*
X14693991Y-12859222D01*
X14693991Y-12859222D02*
X14703515Y-12878269D01*
X14703515Y-12878269D02*
X14703515Y-12925888D01*
X14703515Y-12925888D02*
X14693991Y-12944936D01*
X14693991Y-12944936D02*
X14684468Y-12954460D01*
X14684468Y-12954460D02*
X14665420Y-12963984D01*
X14665420Y-12963984D02*
X14617801Y-12963984D01*
X14617801Y-12963984D02*
X14598753Y-12954460D01*
X14598753Y-12954460D02*
X14589229Y-12944936D01*
X14941610Y-12963984D02*
X14941610Y-12763984D01*
X15027325Y-12963984D02*
X15027325Y-12859222D01*
X15027325Y-12859222D02*
X15017801Y-12840174D01*
X15017801Y-12840174D02*
X14998753Y-12830650D01*
X14998753Y-12830650D02*
X14970182Y-12830650D01*
X14970182Y-12830650D02*
X14951134Y-12840174D01*
X14951134Y-12840174D02*
X14941610Y-12849698D01*
X15151134Y-12963984D02*
X15132087Y-12954460D01*
X15132087Y-12954460D02*
X15122563Y-12944936D01*
X15122563Y-12944936D02*
X15113039Y-12925888D01*
X15113039Y-12925888D02*
X15113039Y-12868746D01*
X15113039Y-12868746D02*
X15122563Y-12849698D01*
X15122563Y-12849698D02*
X15132087Y-12840174D01*
X15132087Y-12840174D02*
X15151134Y-12830650D01*
X15151134Y-12830650D02*
X15179706Y-12830650D01*
X15179706Y-12830650D02*
X15198753Y-12840174D01*
X15198753Y-12840174D02*
X15208277Y-12849698D01*
X15208277Y-12849698D02*
X15217801Y-12868746D01*
X15217801Y-12868746D02*
X15217801Y-12925888D01*
X15217801Y-12925888D02*
X15208277Y-12944936D01*
X15208277Y-12944936D02*
X15198753Y-12954460D01*
X15198753Y-12954460D02*
X15179706Y-12963984D01*
X15179706Y-12963984D02*
X15151134Y-12963984D01*
X15332087Y-12963984D02*
X15313039Y-12954460D01*
X15313039Y-12954460D02*
X15303515Y-12935412D01*
X15303515Y-12935412D02*
X15303515Y-12763984D01*
X15484468Y-12954460D02*
X15465420Y-12963984D01*
X15465420Y-12963984D02*
X15427325Y-12963984D01*
X15427325Y-12963984D02*
X15408277Y-12954460D01*
X15408277Y-12954460D02*
X15398753Y-12935412D01*
X15398753Y-12935412D02*
X15398753Y-12859222D01*
X15398753Y-12859222D02*
X15408277Y-12840174D01*
X15408277Y-12840174D02*
X15427325Y-12830650D01*
X15427325Y-12830650D02*
X15465420Y-12830650D01*
X15465420Y-12830650D02*
X15484468Y-12840174D01*
X15484468Y-12840174D02*
X15493991Y-12859222D01*
X15493991Y-12859222D02*
X15493991Y-12878269D01*
X15493991Y-12878269D02*
X15398753Y-12897317D01*
X15570182Y-12954460D02*
X15589230Y-12963984D01*
X15589230Y-12963984D02*
X15627325Y-12963984D01*
X15627325Y-12963984D02*
X15646372Y-12954460D01*
X15646372Y-12954460D02*
X15655896Y-12935412D01*
X15655896Y-12935412D02*
X15655896Y-12925888D01*
X15655896Y-12925888D02*
X15646372Y-12906841D01*
X15646372Y-12906841D02*
X15627325Y-12897317D01*
X15627325Y-12897317D02*
X15598753Y-12897317D01*
X15598753Y-12897317D02*
X15579706Y-12887793D01*
X15579706Y-12887793D02*
X15570182Y-12868746D01*
X15570182Y-12868746D02*
X15570182Y-12859222D01*
X15570182Y-12859222D02*
X15579706Y-12840174D01*
X15579706Y-12840174D02*
X15598753Y-12830650D01*
X15598753Y-12830650D02*
X15627325Y-12830650D01*
X15627325Y-12830650D02*
X15646372Y-12840174D01*
X15722563Y-13040174D02*
X15732087Y-13030650D01*
X15732087Y-13030650D02*
X15751134Y-13002079D01*
X15751134Y-13002079D02*
X15760658Y-12983031D01*
X15760658Y-12983031D02*
X15770182Y-12954460D01*
X15770182Y-12954460D02*
X15779706Y-12906841D01*
X15779706Y-12906841D02*
X15779706Y-12868746D01*
X15779706Y-12868746D02*
X15770182Y-12821127D01*
X15770182Y-12821127D02*
X15760658Y-12792555D01*
X15760658Y-12792555D02*
X15751134Y-12773508D01*
X15751134Y-12773508D02*
X15732087Y-12744936D01*
X15732087Y-12744936D02*
X15722563Y-12735412D01*
M02*
