%TF.GenerationSoftware,KiCad,Pcbnew,7.0.11+dfsg-1build4*%
%TF.CreationDate,2025-06-01T15:33:29-04:00*%
%TF.ProjectId,tek-cap-pcb,74656b2d-6361-4702-9d70-63622e6b6963,A*%
%TF.SameCoordinates,Original*%
%TF.FileFunction,Legend,Bot*%
%TF.FilePolarity,Positive*%
%FSLAX46Y46*%
G04 Gerber Fmt 4.6, Leading zero omitted, Abs format (unit mm)*
G04 Created by KiCad (PCBNEW 7.0.11+dfsg-1build4) date 2025-06-01 15:33:29*
%MOMM*%
%LPD*%
G01*
G04 APERTURE LIST*
%ADD10C,0.100000*%
G04 APERTURE END LIST*
D10*
X136976191Y-105282419D02*
X136976191Y-104282419D01*
X136404763Y-105282419D02*
X136833334Y-104710990D01*
X136404763Y-104282419D02*
X136976191Y-104853847D01*
X135833334Y-105282419D02*
X135928572Y-105234800D01*
X135928572Y-105234800D02*
X135976191Y-105139561D01*
X135976191Y-105139561D02*
X135976191Y-104282419D01*
X135023810Y-104615752D02*
X135023810Y-105282419D01*
X135452381Y-104615752D02*
X135452381Y-105139561D01*
X135452381Y-105139561D02*
X135404762Y-105234800D01*
X135404762Y-105234800D02*
X135309524Y-105282419D01*
X135309524Y-105282419D02*
X135166667Y-105282419D01*
X135166667Y-105282419D02*
X135071429Y-105234800D01*
X135071429Y-105234800D02*
X135023810Y-105187180D01*
X134119048Y-105282419D02*
X134119048Y-104282419D01*
X134119048Y-105234800D02*
X134214286Y-105282419D01*
X134214286Y-105282419D02*
X134404762Y-105282419D01*
X134404762Y-105282419D02*
X134500000Y-105234800D01*
X134500000Y-105234800D02*
X134547619Y-105187180D01*
X134547619Y-105187180D02*
X134595238Y-105091942D01*
X134595238Y-105091942D02*
X134595238Y-104806228D01*
X134595238Y-104806228D02*
X134547619Y-104710990D01*
X134547619Y-104710990D02*
X134500000Y-104663371D01*
X134500000Y-104663371D02*
X134404762Y-104615752D01*
X134404762Y-104615752D02*
X134214286Y-104615752D01*
X134214286Y-104615752D02*
X134119048Y-104663371D01*
X133214286Y-104615752D02*
X133214286Y-105425276D01*
X133214286Y-105425276D02*
X133261905Y-105520514D01*
X133261905Y-105520514D02*
X133309524Y-105568133D01*
X133309524Y-105568133D02*
X133404762Y-105615752D01*
X133404762Y-105615752D02*
X133547619Y-105615752D01*
X133547619Y-105615752D02*
X133642857Y-105568133D01*
X133214286Y-105234800D02*
X133309524Y-105282419D01*
X133309524Y-105282419D02*
X133500000Y-105282419D01*
X133500000Y-105282419D02*
X133595238Y-105234800D01*
X133595238Y-105234800D02*
X133642857Y-105187180D01*
X133642857Y-105187180D02*
X133690476Y-105091942D01*
X133690476Y-105091942D02*
X133690476Y-104806228D01*
X133690476Y-104806228D02*
X133642857Y-104710990D01*
X133642857Y-104710990D02*
X133595238Y-104663371D01*
X133595238Y-104663371D02*
X133500000Y-104615752D01*
X133500000Y-104615752D02*
X133309524Y-104615752D01*
X133309524Y-104615752D02*
X133214286Y-104663371D01*
X132357143Y-105234800D02*
X132452381Y-105282419D01*
X132452381Y-105282419D02*
X132642857Y-105282419D01*
X132642857Y-105282419D02*
X132738095Y-105234800D01*
X132738095Y-105234800D02*
X132785714Y-105139561D01*
X132785714Y-105139561D02*
X132785714Y-104758609D01*
X132785714Y-104758609D02*
X132738095Y-104663371D01*
X132738095Y-104663371D02*
X132642857Y-104615752D01*
X132642857Y-104615752D02*
X132452381Y-104615752D01*
X132452381Y-104615752D02*
X132357143Y-104663371D01*
X132357143Y-104663371D02*
X132309524Y-104758609D01*
X132309524Y-104758609D02*
X132309524Y-104853847D01*
X132309524Y-104853847D02*
X132785714Y-104949085D01*
X131928571Y-105234800D02*
X131833333Y-105282419D01*
X131833333Y-105282419D02*
X131642857Y-105282419D01*
X131642857Y-105282419D02*
X131547619Y-105234800D01*
X131547619Y-105234800D02*
X131500000Y-105139561D01*
X131500000Y-105139561D02*
X131500000Y-105091942D01*
X131500000Y-105091942D02*
X131547619Y-104996704D01*
X131547619Y-104996704D02*
X131642857Y-104949085D01*
X131642857Y-104949085D02*
X131785714Y-104949085D01*
X131785714Y-104949085D02*
X131880952Y-104901466D01*
X131880952Y-104901466D02*
X131928571Y-104806228D01*
X131928571Y-104806228D02*
X131928571Y-104758609D01*
X131928571Y-104758609D02*
X131880952Y-104663371D01*
X131880952Y-104663371D02*
X131785714Y-104615752D01*
X131785714Y-104615752D02*
X131642857Y-104615752D01*
X131642857Y-104615752D02*
X131547619Y-104663371D01*
X130452380Y-104615752D02*
X130071428Y-104615752D01*
X130309523Y-105282419D02*
X130309523Y-104425276D01*
X130309523Y-104425276D02*
X130261904Y-104330038D01*
X130261904Y-104330038D02*
X130166666Y-104282419D01*
X130166666Y-104282419D02*
X130071428Y-104282419D01*
X129738094Y-105282419D02*
X129738094Y-104615752D01*
X129738094Y-104806228D02*
X129690475Y-104710990D01*
X129690475Y-104710990D02*
X129642856Y-104663371D01*
X129642856Y-104663371D02*
X129547618Y-104615752D01*
X129547618Y-104615752D02*
X129452380Y-104615752D01*
X128976189Y-105282419D02*
X129071427Y-105234800D01*
X129071427Y-105234800D02*
X129119046Y-105187180D01*
X129119046Y-105187180D02*
X129166665Y-105091942D01*
X129166665Y-105091942D02*
X129166665Y-104806228D01*
X129166665Y-104806228D02*
X129119046Y-104710990D01*
X129119046Y-104710990D02*
X129071427Y-104663371D01*
X129071427Y-104663371D02*
X128976189Y-104615752D01*
X128976189Y-104615752D02*
X128833332Y-104615752D01*
X128833332Y-104615752D02*
X128738094Y-104663371D01*
X128738094Y-104663371D02*
X128690475Y-104710990D01*
X128690475Y-104710990D02*
X128642856Y-104806228D01*
X128642856Y-104806228D02*
X128642856Y-105091942D01*
X128642856Y-105091942D02*
X128690475Y-105187180D01*
X128690475Y-105187180D02*
X128738094Y-105234800D01*
X128738094Y-105234800D02*
X128833332Y-105282419D01*
X128833332Y-105282419D02*
X128976189Y-105282419D01*
X128214284Y-105282419D02*
X128214284Y-104615752D01*
X128214284Y-104710990D02*
X128166665Y-104663371D01*
X128166665Y-104663371D02*
X128071427Y-104615752D01*
X128071427Y-104615752D02*
X127928570Y-104615752D01*
X127928570Y-104615752D02*
X127833332Y-104663371D01*
X127833332Y-104663371D02*
X127785713Y-104758609D01*
X127785713Y-104758609D02*
X127785713Y-105282419D01*
X127785713Y-104758609D02*
X127738094Y-104663371D01*
X127738094Y-104663371D02*
X127642856Y-104615752D01*
X127642856Y-104615752D02*
X127499999Y-104615752D01*
X127499999Y-104615752D02*
X127404760Y-104663371D01*
X127404760Y-104663371D02*
X127357141Y-104758609D01*
X127357141Y-104758609D02*
X127357141Y-105282419D01*
X126119046Y-105282419D02*
X126119046Y-104282419D01*
X125547618Y-105282419D02*
X125976189Y-104710990D01*
X125547618Y-104282419D02*
X126119046Y-104853847D01*
X124738094Y-105234800D02*
X124833332Y-105282419D01*
X124833332Y-105282419D02*
X125023808Y-105282419D01*
X125023808Y-105282419D02*
X125119046Y-105234800D01*
X125119046Y-105234800D02*
X125166665Y-105139561D01*
X125166665Y-105139561D02*
X125166665Y-104758609D01*
X125166665Y-104758609D02*
X125119046Y-104663371D01*
X125119046Y-104663371D02*
X125023808Y-104615752D01*
X125023808Y-104615752D02*
X124833332Y-104615752D01*
X124833332Y-104615752D02*
X124738094Y-104663371D01*
X124738094Y-104663371D02*
X124690475Y-104758609D01*
X124690475Y-104758609D02*
X124690475Y-104853847D01*
X124690475Y-104853847D02*
X125166665Y-104949085D01*
X124357141Y-104615752D02*
X124119046Y-105282419D01*
X124119046Y-105282419D02*
X123880951Y-104615752D01*
X123499998Y-105282419D02*
X123499998Y-104615752D01*
X123499998Y-104282419D02*
X123547617Y-104330038D01*
X123547617Y-104330038D02*
X123499998Y-104377657D01*
X123499998Y-104377657D02*
X123452379Y-104330038D01*
X123452379Y-104330038D02*
X123499998Y-104282419D01*
X123499998Y-104282419D02*
X123499998Y-104377657D01*
X123023808Y-104615752D02*
X123023808Y-105282419D01*
X123023808Y-104710990D02*
X122976189Y-104663371D01*
X122976189Y-104663371D02*
X122880951Y-104615752D01*
X122880951Y-104615752D02*
X122738094Y-104615752D01*
X122738094Y-104615752D02*
X122642856Y-104663371D01*
X122642856Y-104663371D02*
X122595237Y-104758609D01*
X122595237Y-104758609D02*
X122595237Y-105282419D01*
X122071427Y-104282419D02*
X122166665Y-104472895D01*
X121690475Y-105234800D02*
X121595237Y-105282419D01*
X121595237Y-105282419D02*
X121404761Y-105282419D01*
X121404761Y-105282419D02*
X121309523Y-105234800D01*
X121309523Y-105234800D02*
X121261904Y-105139561D01*
X121261904Y-105139561D02*
X121261904Y-105091942D01*
X121261904Y-105091942D02*
X121309523Y-104996704D01*
X121309523Y-104996704D02*
X121404761Y-104949085D01*
X121404761Y-104949085D02*
X121547618Y-104949085D01*
X121547618Y-104949085D02*
X121642856Y-104901466D01*
X121642856Y-104901466D02*
X121690475Y-104806228D01*
X121690475Y-104806228D02*
X121690475Y-104758609D01*
X121690475Y-104758609D02*
X121642856Y-104663371D01*
X121642856Y-104663371D02*
X121547618Y-104615752D01*
X121547618Y-104615752D02*
X121404761Y-104615752D01*
X121404761Y-104615752D02*
X121309523Y-104663371D01*
X119499999Y-105187180D02*
X119547618Y-105234800D01*
X119547618Y-105234800D02*
X119690475Y-105282419D01*
X119690475Y-105282419D02*
X119785713Y-105282419D01*
X119785713Y-105282419D02*
X119928570Y-105234800D01*
X119928570Y-105234800D02*
X120023808Y-105139561D01*
X120023808Y-105139561D02*
X120071427Y-105044323D01*
X120071427Y-105044323D02*
X120119046Y-104853847D01*
X120119046Y-104853847D02*
X120119046Y-104710990D01*
X120119046Y-104710990D02*
X120071427Y-104520514D01*
X120071427Y-104520514D02*
X120023808Y-104425276D01*
X120023808Y-104425276D02*
X119928570Y-104330038D01*
X119928570Y-104330038D02*
X119785713Y-104282419D01*
X119785713Y-104282419D02*
X119690475Y-104282419D01*
X119690475Y-104282419D02*
X119547618Y-104330038D01*
X119547618Y-104330038D02*
X119499999Y-104377657D01*
X118642856Y-105282419D02*
X118642856Y-104758609D01*
X118642856Y-104758609D02*
X118690475Y-104663371D01*
X118690475Y-104663371D02*
X118785713Y-104615752D01*
X118785713Y-104615752D02*
X118976189Y-104615752D01*
X118976189Y-104615752D02*
X119071427Y-104663371D01*
X118642856Y-105234800D02*
X118738094Y-105282419D01*
X118738094Y-105282419D02*
X118976189Y-105282419D01*
X118976189Y-105282419D02*
X119071427Y-105234800D01*
X119071427Y-105234800D02*
X119119046Y-105139561D01*
X119119046Y-105139561D02*
X119119046Y-105044323D01*
X119119046Y-105044323D02*
X119071427Y-104949085D01*
X119071427Y-104949085D02*
X118976189Y-104901466D01*
X118976189Y-104901466D02*
X118738094Y-104901466D01*
X118738094Y-104901466D02*
X118642856Y-104853847D01*
X118261903Y-104615752D02*
X118023808Y-105282419D01*
X118023808Y-105282419D02*
X117785713Y-104615752D01*
X117023808Y-105234800D02*
X117119046Y-105282419D01*
X117119046Y-105282419D02*
X117309522Y-105282419D01*
X117309522Y-105282419D02*
X117404760Y-105234800D01*
X117404760Y-105234800D02*
X117452379Y-105139561D01*
X117452379Y-105139561D02*
X117452379Y-104758609D01*
X117452379Y-104758609D02*
X117404760Y-104663371D01*
X117404760Y-104663371D02*
X117309522Y-104615752D01*
X117309522Y-104615752D02*
X117119046Y-104615752D01*
X117119046Y-104615752D02*
X117023808Y-104663371D01*
X117023808Y-104663371D02*
X116976189Y-104758609D01*
X116976189Y-104758609D02*
X116976189Y-104853847D01*
X116976189Y-104853847D02*
X117452379Y-104949085D01*
X140952382Y-96662419D02*
X140761906Y-96662419D01*
X140761906Y-96662419D02*
X140666668Y-96710038D01*
X140666668Y-96710038D02*
X140571430Y-96805276D01*
X140571430Y-96805276D02*
X140523811Y-96995752D01*
X140523811Y-96995752D02*
X140523811Y-97329085D01*
X140523811Y-97329085D02*
X140571430Y-97519561D01*
X140571430Y-97519561D02*
X140666668Y-97614800D01*
X140666668Y-97614800D02*
X140761906Y-97662419D01*
X140761906Y-97662419D02*
X140952382Y-97662419D01*
X140952382Y-97662419D02*
X141047620Y-97614800D01*
X141047620Y-97614800D02*
X141142858Y-97519561D01*
X141142858Y-97519561D02*
X141190477Y-97329085D01*
X141190477Y-97329085D02*
X141190477Y-96995752D01*
X141190477Y-96995752D02*
X141142858Y-96805276D01*
X141142858Y-96805276D02*
X141047620Y-96710038D01*
X141047620Y-96710038D02*
X140952382Y-96662419D01*
X140142858Y-97614800D02*
X140000001Y-97662419D01*
X140000001Y-97662419D02*
X139761906Y-97662419D01*
X139761906Y-97662419D02*
X139666668Y-97614800D01*
X139666668Y-97614800D02*
X139619049Y-97567180D01*
X139619049Y-97567180D02*
X139571430Y-97471942D01*
X139571430Y-97471942D02*
X139571430Y-97376704D01*
X139571430Y-97376704D02*
X139619049Y-97281466D01*
X139619049Y-97281466D02*
X139666668Y-97233847D01*
X139666668Y-97233847D02*
X139761906Y-97186228D01*
X139761906Y-97186228D02*
X139952382Y-97138609D01*
X139952382Y-97138609D02*
X140047620Y-97090990D01*
X140047620Y-97090990D02*
X140095239Y-97043371D01*
X140095239Y-97043371D02*
X140142858Y-96948133D01*
X140142858Y-96948133D02*
X140142858Y-96852895D01*
X140142858Y-96852895D02*
X140095239Y-96757657D01*
X140095239Y-96757657D02*
X140047620Y-96710038D01*
X140047620Y-96710038D02*
X139952382Y-96662419D01*
X139952382Y-96662419D02*
X139714287Y-96662419D01*
X139714287Y-96662419D02*
X139571430Y-96710038D01*
X139142858Y-97281466D02*
X138380954Y-97281466D01*
X137952382Y-96757657D02*
X137904763Y-96710038D01*
X137904763Y-96710038D02*
X137809525Y-96662419D01*
X137809525Y-96662419D02*
X137571430Y-96662419D01*
X137571430Y-96662419D02*
X137476192Y-96710038D01*
X137476192Y-96710038D02*
X137428573Y-96757657D01*
X137428573Y-96757657D02*
X137380954Y-96852895D01*
X137380954Y-96852895D02*
X137380954Y-96948133D01*
X137380954Y-96948133D02*
X137428573Y-97090990D01*
X137428573Y-97090990D02*
X138000001Y-97662419D01*
X138000001Y-97662419D02*
X137380954Y-97662419D01*
X136523811Y-96995752D02*
X136523811Y-97662419D01*
X136761906Y-96614800D02*
X137000001Y-97329085D01*
X137000001Y-97329085D02*
X136380954Y-97329085D01*
X135523811Y-96662419D02*
X136000001Y-96662419D01*
X136000001Y-96662419D02*
X136047620Y-97138609D01*
X136047620Y-97138609D02*
X136000001Y-97090990D01*
X136000001Y-97090990D02*
X135904763Y-97043371D01*
X135904763Y-97043371D02*
X135666668Y-97043371D01*
X135666668Y-97043371D02*
X135571430Y-97090990D01*
X135571430Y-97090990D02*
X135523811Y-97138609D01*
X135523811Y-97138609D02*
X135476192Y-97233847D01*
X135476192Y-97233847D02*
X135476192Y-97471942D01*
X135476192Y-97471942D02*
X135523811Y-97567180D01*
X135523811Y-97567180D02*
X135571430Y-97614800D01*
X135571430Y-97614800D02*
X135666668Y-97662419D01*
X135666668Y-97662419D02*
X135904763Y-97662419D01*
X135904763Y-97662419D02*
X136000001Y-97614800D01*
X136000001Y-97614800D02*
X136047620Y-97567180D01*
X134761906Y-98043371D02*
X134809525Y-97995752D01*
X134809525Y-97995752D02*
X134904763Y-97852895D01*
X134904763Y-97852895D02*
X134952382Y-97757657D01*
X134952382Y-97757657D02*
X135000001Y-97614800D01*
X135000001Y-97614800D02*
X135047620Y-97376704D01*
X135047620Y-97376704D02*
X135047620Y-97186228D01*
X135047620Y-97186228D02*
X135000001Y-96948133D01*
X135000001Y-96948133D02*
X134952382Y-96805276D01*
X134952382Y-96805276D02*
X134904763Y-96710038D01*
X134904763Y-96710038D02*
X134809525Y-96567180D01*
X134809525Y-96567180D02*
X134761906Y-96519561D01*
X134380953Y-97662419D02*
X134380953Y-96662419D01*
X134380953Y-96662419D02*
X134000001Y-96662419D01*
X134000001Y-96662419D02*
X133904763Y-96710038D01*
X133904763Y-96710038D02*
X133857144Y-96757657D01*
X133857144Y-96757657D02*
X133809525Y-96852895D01*
X133809525Y-96852895D02*
X133809525Y-96995752D01*
X133809525Y-96995752D02*
X133857144Y-97090990D01*
X133857144Y-97090990D02*
X133904763Y-97138609D01*
X133904763Y-97138609D02*
X134000001Y-97186228D01*
X134000001Y-97186228D02*
X134380953Y-97186228D01*
X133476191Y-98043371D02*
X133428572Y-97995752D01*
X133428572Y-97995752D02*
X133333334Y-97852895D01*
X133333334Y-97852895D02*
X133285715Y-97757657D01*
X133285715Y-97757657D02*
X133238096Y-97614800D01*
X133238096Y-97614800D02*
X133190477Y-97376704D01*
X133190477Y-97376704D02*
X133190477Y-97186228D01*
X133190477Y-97186228D02*
X133238096Y-96948133D01*
X133238096Y-96948133D02*
X133285715Y-96805276D01*
X133285715Y-96805276D02*
X133333334Y-96710038D01*
X133333334Y-96710038D02*
X133428572Y-96567180D01*
X133428572Y-96567180D02*
X133476191Y-96519561D01*
X132000001Y-96614800D02*
X132857143Y-97900514D01*
X131666667Y-96662419D02*
X131666667Y-97471942D01*
X131666667Y-97471942D02*
X131619048Y-97567180D01*
X131619048Y-97567180D02*
X131571429Y-97614800D01*
X131571429Y-97614800D02*
X131476191Y-97662419D01*
X131476191Y-97662419D02*
X131285715Y-97662419D01*
X131285715Y-97662419D02*
X131190477Y-97614800D01*
X131190477Y-97614800D02*
X131142858Y-97567180D01*
X131142858Y-97567180D02*
X131095239Y-97471942D01*
X131095239Y-97471942D02*
X131095239Y-96662419D01*
X129285715Y-97567180D02*
X129333334Y-97614800D01*
X129333334Y-97614800D02*
X129476191Y-97662419D01*
X129476191Y-97662419D02*
X129571429Y-97662419D01*
X129571429Y-97662419D02*
X129714286Y-97614800D01*
X129714286Y-97614800D02*
X129809524Y-97519561D01*
X129809524Y-97519561D02*
X129857143Y-97424323D01*
X129857143Y-97424323D02*
X129904762Y-97233847D01*
X129904762Y-97233847D02*
X129904762Y-97090990D01*
X129904762Y-97090990D02*
X129857143Y-96900514D01*
X129857143Y-96900514D02*
X129809524Y-96805276D01*
X129809524Y-96805276D02*
X129714286Y-96710038D01*
X129714286Y-96710038D02*
X129571429Y-96662419D01*
X129571429Y-96662419D02*
X129476191Y-96662419D01*
X129476191Y-96662419D02*
X129333334Y-96710038D01*
X129333334Y-96710038D02*
X129285715Y-96757657D01*
X128428572Y-97662419D02*
X128428572Y-97138609D01*
X128428572Y-97138609D02*
X128476191Y-97043371D01*
X128476191Y-97043371D02*
X128571429Y-96995752D01*
X128571429Y-96995752D02*
X128761905Y-96995752D01*
X128761905Y-96995752D02*
X128857143Y-97043371D01*
X128428572Y-97614800D02*
X128523810Y-97662419D01*
X128523810Y-97662419D02*
X128761905Y-97662419D01*
X128761905Y-97662419D02*
X128857143Y-97614800D01*
X128857143Y-97614800D02*
X128904762Y-97519561D01*
X128904762Y-97519561D02*
X128904762Y-97424323D01*
X128904762Y-97424323D02*
X128857143Y-97329085D01*
X128857143Y-97329085D02*
X128761905Y-97281466D01*
X128761905Y-97281466D02*
X128523810Y-97281466D01*
X128523810Y-97281466D02*
X128428572Y-97233847D01*
X127952381Y-96995752D02*
X127952381Y-97995752D01*
X127952381Y-97043371D02*
X127857143Y-96995752D01*
X127857143Y-96995752D02*
X127666667Y-96995752D01*
X127666667Y-96995752D02*
X127571429Y-97043371D01*
X127571429Y-97043371D02*
X127523810Y-97090990D01*
X127523810Y-97090990D02*
X127476191Y-97186228D01*
X127476191Y-97186228D02*
X127476191Y-97471942D01*
X127476191Y-97471942D02*
X127523810Y-97567180D01*
X127523810Y-97567180D02*
X127571429Y-97614800D01*
X127571429Y-97614800D02*
X127666667Y-97662419D01*
X127666667Y-97662419D02*
X127857143Y-97662419D01*
X127857143Y-97662419D02*
X127952381Y-97614800D01*
X126619048Y-97662419D02*
X126619048Y-97138609D01*
X126619048Y-97138609D02*
X126666667Y-97043371D01*
X126666667Y-97043371D02*
X126761905Y-96995752D01*
X126761905Y-96995752D02*
X126952381Y-96995752D01*
X126952381Y-96995752D02*
X127047619Y-97043371D01*
X126619048Y-97614800D02*
X126714286Y-97662419D01*
X126714286Y-97662419D02*
X126952381Y-97662419D01*
X126952381Y-97662419D02*
X127047619Y-97614800D01*
X127047619Y-97614800D02*
X127095238Y-97519561D01*
X127095238Y-97519561D02*
X127095238Y-97424323D01*
X127095238Y-97424323D02*
X127047619Y-97329085D01*
X127047619Y-97329085D02*
X126952381Y-97281466D01*
X126952381Y-97281466D02*
X126714286Y-97281466D01*
X126714286Y-97281466D02*
X126619048Y-97233847D01*
X125714286Y-97614800D02*
X125809524Y-97662419D01*
X125809524Y-97662419D02*
X126000000Y-97662419D01*
X126000000Y-97662419D02*
X126095238Y-97614800D01*
X126095238Y-97614800D02*
X126142857Y-97567180D01*
X126142857Y-97567180D02*
X126190476Y-97471942D01*
X126190476Y-97471942D02*
X126190476Y-97186228D01*
X126190476Y-97186228D02*
X126142857Y-97090990D01*
X126142857Y-97090990D02*
X126095238Y-97043371D01*
X126095238Y-97043371D02*
X126000000Y-96995752D01*
X126000000Y-96995752D02*
X125809524Y-96995752D01*
X125809524Y-96995752D02*
X125714286Y-97043371D01*
X125285714Y-97662419D02*
X125285714Y-96995752D01*
X125285714Y-96662419D02*
X125333333Y-96710038D01*
X125333333Y-96710038D02*
X125285714Y-96757657D01*
X125285714Y-96757657D02*
X125238095Y-96710038D01*
X125238095Y-96710038D02*
X125285714Y-96662419D01*
X125285714Y-96662419D02*
X125285714Y-96757657D01*
X124952381Y-96995752D02*
X124571429Y-96995752D01*
X124809524Y-96662419D02*
X124809524Y-97519561D01*
X124809524Y-97519561D02*
X124761905Y-97614800D01*
X124761905Y-97614800D02*
X124666667Y-97662419D01*
X124666667Y-97662419D02*
X124571429Y-97662419D01*
X124095238Y-97662419D02*
X124190476Y-97614800D01*
X124190476Y-97614800D02*
X124238095Y-97567180D01*
X124238095Y-97567180D02*
X124285714Y-97471942D01*
X124285714Y-97471942D02*
X124285714Y-97186228D01*
X124285714Y-97186228D02*
X124238095Y-97090990D01*
X124238095Y-97090990D02*
X124190476Y-97043371D01*
X124190476Y-97043371D02*
X124095238Y-96995752D01*
X124095238Y-96995752D02*
X123952381Y-96995752D01*
X123952381Y-96995752D02*
X123857143Y-97043371D01*
X123857143Y-97043371D02*
X123809524Y-97090990D01*
X123809524Y-97090990D02*
X123761905Y-97186228D01*
X123761905Y-97186228D02*
X123761905Y-97471942D01*
X123761905Y-97471942D02*
X123809524Y-97567180D01*
X123809524Y-97567180D02*
X123857143Y-97614800D01*
X123857143Y-97614800D02*
X123952381Y-97662419D01*
X123952381Y-97662419D02*
X124095238Y-97662419D01*
X123333333Y-97662419D02*
X123333333Y-96995752D01*
X123333333Y-97186228D02*
X123285714Y-97090990D01*
X123285714Y-97090990D02*
X123238095Y-97043371D01*
X123238095Y-97043371D02*
X123142857Y-96995752D01*
X123142857Y-96995752D02*
X123047619Y-96995752D01*
X121380952Y-97662419D02*
X121714285Y-97186228D01*
X121952380Y-97662419D02*
X121952380Y-96662419D01*
X121952380Y-96662419D02*
X121571428Y-96662419D01*
X121571428Y-96662419D02*
X121476190Y-96710038D01*
X121476190Y-96710038D02*
X121428571Y-96757657D01*
X121428571Y-96757657D02*
X121380952Y-96852895D01*
X121380952Y-96852895D02*
X121380952Y-96995752D01*
X121380952Y-96995752D02*
X121428571Y-97090990D01*
X121428571Y-97090990D02*
X121476190Y-97138609D01*
X121476190Y-97138609D02*
X121571428Y-97186228D01*
X121571428Y-97186228D02*
X121952380Y-97186228D01*
X120571428Y-97614800D02*
X120666666Y-97662419D01*
X120666666Y-97662419D02*
X120857142Y-97662419D01*
X120857142Y-97662419D02*
X120952380Y-97614800D01*
X120952380Y-97614800D02*
X120999999Y-97519561D01*
X120999999Y-97519561D02*
X120999999Y-97138609D01*
X120999999Y-97138609D02*
X120952380Y-97043371D01*
X120952380Y-97043371D02*
X120857142Y-96995752D01*
X120857142Y-96995752D02*
X120666666Y-96995752D01*
X120666666Y-96995752D02*
X120571428Y-97043371D01*
X120571428Y-97043371D02*
X120523809Y-97138609D01*
X120523809Y-97138609D02*
X120523809Y-97233847D01*
X120523809Y-97233847D02*
X120999999Y-97329085D01*
X120095237Y-96995752D02*
X120095237Y-97995752D01*
X120095237Y-97043371D02*
X119999999Y-96995752D01*
X119999999Y-96995752D02*
X119809523Y-96995752D01*
X119809523Y-96995752D02*
X119714285Y-97043371D01*
X119714285Y-97043371D02*
X119666666Y-97090990D01*
X119666666Y-97090990D02*
X119619047Y-97186228D01*
X119619047Y-97186228D02*
X119619047Y-97471942D01*
X119619047Y-97471942D02*
X119666666Y-97567180D01*
X119666666Y-97567180D02*
X119714285Y-97614800D01*
X119714285Y-97614800D02*
X119809523Y-97662419D01*
X119809523Y-97662419D02*
X119999999Y-97662419D01*
X119999999Y-97662419D02*
X120095237Y-97614800D01*
X119047618Y-97662419D02*
X119142856Y-97614800D01*
X119142856Y-97614800D02*
X119190475Y-97519561D01*
X119190475Y-97519561D02*
X119190475Y-96662419D01*
X118238094Y-97662419D02*
X118238094Y-97138609D01*
X118238094Y-97138609D02*
X118285713Y-97043371D01*
X118285713Y-97043371D02*
X118380951Y-96995752D01*
X118380951Y-96995752D02*
X118571427Y-96995752D01*
X118571427Y-96995752D02*
X118666665Y-97043371D01*
X118238094Y-97614800D02*
X118333332Y-97662419D01*
X118333332Y-97662419D02*
X118571427Y-97662419D01*
X118571427Y-97662419D02*
X118666665Y-97614800D01*
X118666665Y-97614800D02*
X118714284Y-97519561D01*
X118714284Y-97519561D02*
X118714284Y-97424323D01*
X118714284Y-97424323D02*
X118666665Y-97329085D01*
X118666665Y-97329085D02*
X118571427Y-97281466D01*
X118571427Y-97281466D02*
X118333332Y-97281466D01*
X118333332Y-97281466D02*
X118238094Y-97233847D01*
X117333332Y-97614800D02*
X117428570Y-97662419D01*
X117428570Y-97662419D02*
X117619046Y-97662419D01*
X117619046Y-97662419D02*
X117714284Y-97614800D01*
X117714284Y-97614800D02*
X117761903Y-97567180D01*
X117761903Y-97567180D02*
X117809522Y-97471942D01*
X117809522Y-97471942D02*
X117809522Y-97186228D01*
X117809522Y-97186228D02*
X117761903Y-97090990D01*
X117761903Y-97090990D02*
X117714284Y-97043371D01*
X117714284Y-97043371D02*
X117619046Y-96995752D01*
X117619046Y-96995752D02*
X117428570Y-96995752D01*
X117428570Y-96995752D02*
X117333332Y-97043371D01*
X116523808Y-97614800D02*
X116619046Y-97662419D01*
X116619046Y-97662419D02*
X116809522Y-97662419D01*
X116809522Y-97662419D02*
X116904760Y-97614800D01*
X116904760Y-97614800D02*
X116952379Y-97519561D01*
X116952379Y-97519561D02*
X116952379Y-97138609D01*
X116952379Y-97138609D02*
X116904760Y-97043371D01*
X116904760Y-97043371D02*
X116809522Y-96995752D01*
X116809522Y-96995752D02*
X116619046Y-96995752D01*
X116619046Y-96995752D02*
X116523808Y-97043371D01*
X116523808Y-97043371D02*
X116476189Y-97138609D01*
X116476189Y-97138609D02*
X116476189Y-97233847D01*
X116476189Y-97233847D02*
X116952379Y-97329085D01*
X116047617Y-97662419D02*
X116047617Y-96995752D01*
X116047617Y-97090990D02*
X115999998Y-97043371D01*
X115999998Y-97043371D02*
X115904760Y-96995752D01*
X115904760Y-96995752D02*
X115761903Y-96995752D01*
X115761903Y-96995752D02*
X115666665Y-97043371D01*
X115666665Y-97043371D02*
X115619046Y-97138609D01*
X115619046Y-97138609D02*
X115619046Y-97662419D01*
X115619046Y-97138609D02*
X115571427Y-97043371D01*
X115571427Y-97043371D02*
X115476189Y-96995752D01*
X115476189Y-96995752D02*
X115333332Y-96995752D01*
X115333332Y-96995752D02*
X115238093Y-97043371D01*
X115238093Y-97043371D02*
X115190474Y-97138609D01*
X115190474Y-97138609D02*
X115190474Y-97662419D01*
X114333332Y-97614800D02*
X114428570Y-97662419D01*
X114428570Y-97662419D02*
X114619046Y-97662419D01*
X114619046Y-97662419D02*
X114714284Y-97614800D01*
X114714284Y-97614800D02*
X114761903Y-97519561D01*
X114761903Y-97519561D02*
X114761903Y-97138609D01*
X114761903Y-97138609D02*
X114714284Y-97043371D01*
X114714284Y-97043371D02*
X114619046Y-96995752D01*
X114619046Y-96995752D02*
X114428570Y-96995752D01*
X114428570Y-96995752D02*
X114333332Y-97043371D01*
X114333332Y-97043371D02*
X114285713Y-97138609D01*
X114285713Y-97138609D02*
X114285713Y-97233847D01*
X114285713Y-97233847D02*
X114761903Y-97329085D01*
X113857141Y-96995752D02*
X113857141Y-97662419D01*
X113857141Y-97090990D02*
X113809522Y-97043371D01*
X113809522Y-97043371D02*
X113714284Y-96995752D01*
X113714284Y-96995752D02*
X113571427Y-96995752D01*
X113571427Y-96995752D02*
X113476189Y-97043371D01*
X113476189Y-97043371D02*
X113428570Y-97138609D01*
X113428570Y-97138609D02*
X113428570Y-97662419D01*
X113095236Y-96995752D02*
X112714284Y-96995752D01*
X112952379Y-96662419D02*
X112952379Y-97519561D01*
X112952379Y-97519561D02*
X112904760Y-97614800D01*
X112904760Y-97614800D02*
X112809522Y-97662419D01*
X112809522Y-97662419D02*
X112714284Y-97662419D01*
%TO.C,G\u002A\u002A\u002A*%
G36*
X130220262Y-115498785D02*
G01*
X130253469Y-115549826D01*
X130305354Y-115704036D01*
X130337649Y-115899369D01*
X130346988Y-116073006D01*
X130331578Y-116180009D01*
X130284980Y-116210935D01*
X130240359Y-116192197D01*
X130204673Y-116100526D01*
X130202949Y-116053833D01*
X130189678Y-115894635D01*
X130167593Y-115699942D01*
X130156149Y-115605428D01*
X130149190Y-115487768D01*
X130168879Y-115458643D01*
X130220262Y-115498785D01*
G37*
G36*
X128938806Y-108969822D02*
G01*
X128958055Y-109096128D01*
X128912688Y-109167044D01*
X128802078Y-109168262D01*
X128625595Y-109085475D01*
X128558207Y-109045634D01*
X128454058Y-109001109D01*
X128439238Y-109033441D01*
X128506370Y-109189758D01*
X128678453Y-109573349D01*
X128813752Y-109845870D01*
X128912003Y-110006813D01*
X128972943Y-110055676D01*
X129062752Y-110037528D01*
X129209805Y-110004406D01*
X129325914Y-109996258D01*
X129437333Y-110046845D01*
X129561668Y-110157664D01*
X129580716Y-110174641D01*
X129587431Y-110181366D01*
X129698764Y-110302902D01*
X129759273Y-110412017D01*
X129784317Y-110552381D01*
X129787267Y-110681085D01*
X129789252Y-110767670D01*
X129792370Y-110922677D01*
X129817271Y-111114104D01*
X129880806Y-111287949D01*
X129999118Y-111500590D01*
X130189181Y-111870438D01*
X130384247Y-112457308D01*
X130481368Y-113082246D01*
X130483394Y-113095280D01*
X130483897Y-113101949D01*
X130508364Y-113352903D01*
X130543345Y-113522853D01*
X130600193Y-113648677D01*
X130690260Y-113767252D01*
X130723821Y-113806562D01*
X130948931Y-114104299D01*
X131147947Y-114423453D01*
X131307000Y-114737117D01*
X131412216Y-115018384D01*
X131449723Y-115240348D01*
X131449357Y-115276446D01*
X131443440Y-115355299D01*
X131423330Y-115370318D01*
X131380003Y-115310586D01*
X131304434Y-115165182D01*
X131187597Y-114923187D01*
X131126069Y-114797612D01*
X130983443Y-114524476D01*
X130843369Y-114276481D01*
X130728879Y-114095197D01*
X130643150Y-113972838D01*
X130545524Y-113833180D01*
X130491784Y-113755877D01*
X130479635Y-113748315D01*
X130398213Y-113774025D01*
X130271652Y-113856825D01*
X130126746Y-113973896D01*
X129990287Y-114102422D01*
X129889068Y-114219582D01*
X129876964Y-114245212D01*
X129849881Y-114302559D01*
X129843856Y-114364306D01*
X129818845Y-114528483D01*
X129778966Y-114762481D01*
X129729163Y-115039850D01*
X129674379Y-115334142D01*
X129619556Y-115618911D01*
X129569639Y-115867707D01*
X129529570Y-116054082D01*
X129504293Y-116151589D01*
X129493761Y-116176810D01*
X129465226Y-116196397D01*
X129449541Y-116130426D01*
X129447556Y-116004141D01*
X129460123Y-115842789D01*
X129488096Y-115671615D01*
X129497242Y-115627462D01*
X129536920Y-115374156D01*
X129549462Y-115162961D01*
X129534714Y-115018319D01*
X129492523Y-114964673D01*
X129477605Y-114966623D01*
X129433177Y-115025216D01*
X129425824Y-115041082D01*
X129346124Y-115117548D01*
X129197404Y-115230650D01*
X129002920Y-115362174D01*
X128901424Y-115427540D01*
X128708114Y-115556790D01*
X128586708Y-115654448D01*
X128516981Y-115743446D01*
X128478710Y-115846711D01*
X128451670Y-115987174D01*
X128443515Y-116029003D01*
X128400502Y-116158691D01*
X128352152Y-116210935D01*
X128343096Y-116209112D01*
X128316036Y-116136742D01*
X128328994Y-115969814D01*
X128367551Y-115728693D01*
X128025014Y-115742878D01*
X127899109Y-115745084D01*
X127625595Y-115736116D01*
X127385748Y-115712929D01*
X127186008Y-115665147D01*
X126911794Y-115562659D01*
X126627115Y-115426352D01*
X126363094Y-115272915D01*
X126150856Y-115119036D01*
X126021524Y-114981406D01*
X126020211Y-114979306D01*
X125901366Y-114787922D01*
X125865282Y-114729259D01*
X125991121Y-114729259D01*
X125999956Y-114755739D01*
X126082487Y-114852531D01*
X126231069Y-114981540D01*
X126420209Y-115123147D01*
X126624410Y-115257736D01*
X126818179Y-115365687D01*
X126821891Y-115367500D01*
X127008248Y-115448189D01*
X127191340Y-115499069D01*
X127411778Y-115528251D01*
X127710171Y-115543847D01*
X127929350Y-115546674D01*
X128254491Y-115521933D01*
X128526113Y-115447904D01*
X128783723Y-115311672D01*
X129066823Y-115100322D01*
X129189184Y-114988926D01*
X129367848Y-114790017D01*
X129521827Y-114579656D01*
X129629828Y-114388002D01*
X129670561Y-114245212D01*
X129637018Y-114156011D01*
X129530376Y-114036140D01*
X129391260Y-113937245D01*
X129261973Y-113895530D01*
X129208645Y-113914246D01*
X129089514Y-114003016D01*
X128954730Y-114140331D01*
X128868171Y-114231640D01*
X128670230Y-114364596D01*
X128481633Y-114379893D01*
X128300816Y-114277861D01*
X128241023Y-114227725D01*
X128169556Y-114199731D01*
X128070297Y-114216532D01*
X127902199Y-114278159D01*
X127547024Y-114415298D01*
X127264234Y-114520620D01*
X127048722Y-114593540D01*
X126878584Y-114640003D01*
X126731916Y-114665955D01*
X126586816Y-114677340D01*
X126421378Y-114680105D01*
X126392363Y-114680284D01*
X126189116Y-114688326D01*
X126045536Y-114705775D01*
X125991121Y-114729259D01*
X125865282Y-114729259D01*
X125783102Y-114595658D01*
X125776047Y-114584467D01*
X125635435Y-114423770D01*
X125467750Y-114302675D01*
X125354581Y-114225107D01*
X125176637Y-114053333D01*
X125042802Y-113893912D01*
X125350633Y-113893912D01*
X125390950Y-114061941D01*
X125425624Y-114109768D01*
X125552519Y-114227178D01*
X125719077Y-114341756D01*
X125855046Y-114407848D01*
X126136281Y-114492982D01*
X126427167Y-114531465D01*
X126673598Y-114513559D01*
X126746737Y-114492453D01*
X126917817Y-114437898D01*
X127149806Y-114360996D01*
X127414083Y-114271120D01*
X127467490Y-114252781D01*
X127731373Y-114165253D01*
X127917145Y-114113464D01*
X128053255Y-114092674D01*
X128168152Y-114098144D01*
X128290285Y-114125134D01*
X128323516Y-114133948D01*
X128528231Y-114179760D01*
X128656552Y-114179386D01*
X128740320Y-114125948D01*
X128811377Y-114012567D01*
X128915716Y-113855179D01*
X129061439Y-113760273D01*
X129249225Y-113761128D01*
X129498558Y-113853228D01*
X129511512Y-113859361D01*
X129707051Y-113941117D01*
X129840107Y-113966045D01*
X129946147Y-113941110D01*
X130014957Y-113899371D01*
X130151513Y-113722450D01*
X130235439Y-113447627D01*
X130264019Y-113082246D01*
X130264014Y-113077678D01*
X130222750Y-112628935D01*
X130108342Y-112180928D01*
X129932243Y-111753302D01*
X129705905Y-111365703D01*
X129440781Y-111037776D01*
X129148323Y-110789167D01*
X128839985Y-110639521D01*
X128770868Y-110619986D01*
X128632948Y-110589527D01*
X128567239Y-110588399D01*
X128566921Y-110588778D01*
X128589739Y-110646047D01*
X128668808Y-110769755D01*
X128787454Y-110933751D01*
X128966231Y-111185896D01*
X129133090Y-111485550D01*
X129225013Y-111764053D01*
X129253837Y-112049724D01*
X129253846Y-112058831D01*
X129253607Y-112060525D01*
X129205717Y-112399257D01*
X129064116Y-112667449D01*
X128830931Y-112861817D01*
X128508051Y-112980773D01*
X128097364Y-113022729D01*
X127778591Y-113004348D01*
X127524966Y-112931895D01*
X127332608Y-112792779D01*
X127176047Y-112574612D01*
X127098429Y-112373069D01*
X127089501Y-112261263D01*
X127238051Y-112261263D01*
X127292825Y-112482413D01*
X127408468Y-112661754D01*
X127415315Y-112669393D01*
X127516799Y-112769737D01*
X127619908Y-112827407D01*
X127763664Y-112856531D01*
X127987090Y-112871237D01*
X128232012Y-112871535D01*
X128507318Y-112826490D01*
X128725279Y-112717980D01*
X128916844Y-112534808D01*
X129026281Y-112342169D01*
X129081751Y-112060525D01*
X129057013Y-111750810D01*
X128951031Y-111446070D01*
X128867809Y-111298668D01*
X128679013Y-111031161D01*
X128460187Y-110780117D01*
X128238706Y-110575600D01*
X128197194Y-110548610D01*
X129077103Y-110548610D01*
X129096059Y-110596898D01*
X129187968Y-110659619D01*
X129281417Y-110707976D01*
X129404876Y-110811982D01*
X129407779Y-110815180D01*
X129520702Y-110912991D01*
X129594757Y-110903551D01*
X129645092Y-110785170D01*
X129653274Y-110681085D01*
X129612478Y-110507747D01*
X129525411Y-110360938D01*
X129413474Y-110286716D01*
X129373048Y-110285422D01*
X129241789Y-110335962D01*
X129166981Y-110401298D01*
X129126563Y-110436598D01*
X129077103Y-110548610D01*
X128197194Y-110548610D01*
X128041942Y-110447670D01*
X127890939Y-110383506D01*
X127746740Y-110343965D01*
X127673312Y-110367209D01*
X127652804Y-110453506D01*
X127641384Y-110526074D01*
X127598055Y-110696631D01*
X127529944Y-110928184D01*
X127445093Y-111192134D01*
X127442615Y-111199550D01*
X127312579Y-111634573D01*
X127244513Y-111983563D01*
X127238051Y-112261263D01*
X127089501Y-112261263D01*
X127071505Y-112035903D01*
X127135704Y-111632080D01*
X127290623Y-111166542D01*
X127332263Y-111062643D01*
X127423044Y-110818627D01*
X127463916Y-110659132D01*
X127454751Y-110566755D01*
X127395419Y-110524092D01*
X127285793Y-110513738D01*
X127225910Y-110516721D01*
X126949859Y-110592791D01*
X126658968Y-110758484D01*
X126374927Y-110996330D01*
X126119427Y-111288857D01*
X125914158Y-111618592D01*
X125814044Y-111834486D01*
X125676629Y-112191796D01*
X125556942Y-112573098D01*
X125459743Y-112956175D01*
X125389786Y-113318814D01*
X125351831Y-113638798D01*
X125350633Y-113893912D01*
X125042802Y-113893912D01*
X124991677Y-113833013D01*
X124826476Y-113596756D01*
X124707810Y-113377173D01*
X124707708Y-113376936D01*
X124618135Y-113237620D01*
X124518322Y-113184299D01*
X124495971Y-113186400D01*
X124359052Y-113259251D01*
X124192667Y-113425905D01*
X124008840Y-113672574D01*
X123819598Y-113985467D01*
X123749692Y-114109894D01*
X123613531Y-114346693D01*
X123442932Y-114639609D01*
X123253283Y-114962556D01*
X123059970Y-115289446D01*
X122878383Y-115594192D01*
X122723908Y-115850705D01*
X122611933Y-116032897D01*
X122587305Y-116060324D01*
X122562108Y-116023882D01*
X122552555Y-115878550D01*
X122552489Y-115872941D01*
X122563970Y-115734223D01*
X122610326Y-115595369D01*
X122705324Y-115426084D01*
X122862733Y-115196074D01*
X122991817Y-115011064D01*
X123189344Y-114712935D01*
X123376784Y-114413902D01*
X123542620Y-114133648D01*
X123675334Y-113891855D01*
X123763409Y-113708205D01*
X123795327Y-113602381D01*
X123772528Y-113563413D01*
X123676635Y-113510701D01*
X123608854Y-113455716D01*
X123559754Y-113329078D01*
X123559734Y-113301988D01*
X123822599Y-113301988D01*
X123839572Y-113390422D01*
X123930918Y-113386589D01*
X124096334Y-113290326D01*
X124335514Y-113101469D01*
X124373423Y-113068870D01*
X124465423Y-112977368D01*
X124512090Y-112884325D01*
X124526224Y-112750758D01*
X124520625Y-112537684D01*
X124510198Y-112364930D01*
X124482491Y-112200383D01*
X124426430Y-112082314D01*
X124327861Y-111968955D01*
X124151609Y-111792163D01*
X123988305Y-111955556D01*
X123825000Y-112118950D01*
X124017874Y-112080421D01*
X124052580Y-112073601D01*
X124162297Y-112064112D01*
X124204096Y-112114367D01*
X124210748Y-112253828D01*
X124190861Y-112389016D01*
X124111343Y-112627491D01*
X123980615Y-112910483D01*
X123880305Y-113121450D01*
X123822599Y-113301988D01*
X123559734Y-113301988D01*
X123559650Y-113190553D01*
X123616586Y-113095716D01*
X123662020Y-113049481D01*
X123752603Y-112917979D01*
X123854331Y-112743524D01*
X123945312Y-112564394D01*
X124003659Y-112418865D01*
X124023248Y-112327918D01*
X123986408Y-112295871D01*
X123862106Y-112313397D01*
X123708163Y-112329278D01*
X123588266Y-112315822D01*
X123528914Y-112273199D01*
X123498216Y-112162643D01*
X123543082Y-112035984D01*
X123656388Y-111933229D01*
X123771037Y-111834708D01*
X123897009Y-111653184D01*
X123992546Y-111443651D01*
X124025738Y-111281373D01*
X124212551Y-111281373D01*
X124232235Y-111546397D01*
X124327891Y-111801947D01*
X124501401Y-112021558D01*
X124524292Y-112043695D01*
X124587163Y-112139620D01*
X124617985Y-112280790D01*
X124626168Y-112503559D01*
X124641735Y-112750758D01*
X124644937Y-112801608D01*
X124749089Y-113204764D01*
X124955779Y-113593924D01*
X125013147Y-113676025D01*
X125108259Y-113791690D01*
X125168167Y-113837103D01*
X125175877Y-113834697D01*
X125207007Y-113763370D01*
X125219626Y-113623878D01*
X125223911Y-113546301D01*
X125248052Y-113345035D01*
X125288712Y-113086606D01*
X125340435Y-112807874D01*
X125424607Y-112444650D01*
X125615710Y-111881234D01*
X125872596Y-111393663D01*
X126207463Y-110960728D01*
X126632510Y-110561216D01*
X126827403Y-110400982D01*
X126704627Y-110160322D01*
X126677768Y-110106826D01*
X126621629Y-109968861D01*
X126753254Y-109968861D01*
X126808035Y-110127991D01*
X126851660Y-110176568D01*
X126955491Y-110268785D01*
X127005146Y-110304443D01*
X127050088Y-110301985D01*
X127059346Y-110198644D01*
X127078871Y-110123020D01*
X127191295Y-110123020D01*
X127238010Y-110247438D01*
X127319579Y-110313828D01*
X127433605Y-110326229D01*
X127512651Y-110246682D01*
X127529552Y-110145705D01*
X127504960Y-110088552D01*
X127664871Y-110088552D01*
X127693356Y-110145630D01*
X127693491Y-110145705D01*
X127793070Y-110201108D01*
X127909501Y-110197550D01*
X127987351Y-110128164D01*
X127997732Y-110071470D01*
X127963387Y-109969742D01*
X127909675Y-109939335D01*
X127795291Y-109943041D01*
X127696631Y-109999569D01*
X127664871Y-110088552D01*
X127504960Y-110088552D01*
X127478608Y-110027308D01*
X127356075Y-109979626D01*
X127239624Y-110019785D01*
X127191295Y-110123020D01*
X127078871Y-110123020D01*
X127091323Y-110074789D01*
X127234702Y-109922189D01*
X127289729Y-109878333D01*
X127372179Y-109757805D01*
X127342081Y-109656368D01*
X127200732Y-109586824D01*
X127047307Y-109587070D01*
X126895088Y-109667809D01*
X126789671Y-109805269D01*
X126753254Y-109968861D01*
X126621629Y-109968861D01*
X126621573Y-109968723D01*
X126620259Y-109866922D01*
X126669435Y-109750293D01*
X126777866Y-109614310D01*
X126935051Y-109507181D01*
X127043693Y-109470387D01*
X127154301Y-109478374D01*
X127288249Y-109558168D01*
X127311421Y-109574425D01*
X127432889Y-109651534D01*
X127503329Y-109682897D01*
X127504179Y-109682580D01*
X127722923Y-109682580D01*
X127729267Y-109757805D01*
X127730033Y-109766894D01*
X127821643Y-109801589D01*
X127904259Y-109821931D01*
X128021610Y-109905444D01*
X128079518Y-109982148D01*
X128127343Y-110071470D01*
X128141718Y-110098318D01*
X128149041Y-110116483D01*
X128187181Y-110126504D01*
X128246013Y-110028512D01*
X128259670Y-109996922D01*
X128294418Y-109803998D01*
X128253529Y-109638115D01*
X128154952Y-109522170D01*
X128016637Y-109479061D01*
X127856534Y-109531683D01*
X127796481Y-109578307D01*
X127722923Y-109682580D01*
X127504179Y-109682580D01*
X127519684Y-109676797D01*
X127604845Y-109612850D01*
X127724400Y-109501739D01*
X127827031Y-109412655D01*
X127990666Y-109344742D01*
X128140743Y-109392856D01*
X128288732Y-109558145D01*
X128401642Y-109791128D01*
X128401895Y-109803998D01*
X128406021Y-110014220D01*
X128300767Y-110254514D01*
X128177235Y-110454393D01*
X128478805Y-110454393D01*
X128590113Y-110450623D01*
X128726941Y-110431380D01*
X128780374Y-110401298D01*
X128777049Y-110358550D01*
X128736455Y-110188239D01*
X129101193Y-110188239D01*
X129162619Y-110217009D01*
X129206835Y-110209746D01*
X129255140Y-110157664D01*
X129253542Y-110143583D01*
X129199297Y-110098318D01*
X129182647Y-110100582D01*
X129106776Y-110157664D01*
X129101193Y-110188239D01*
X128736455Y-110188239D01*
X128733954Y-110177747D01*
X128651799Y-109939127D01*
X128544265Y-109676922D01*
X128425031Y-109425365D01*
X128307777Y-109218687D01*
X128304560Y-109213715D01*
X128147822Y-108990226D01*
X128037033Y-108875092D01*
X127971251Y-108867653D01*
X127949533Y-108967245D01*
X127948944Y-108989042D01*
X127908150Y-109101681D01*
X127813222Y-109115088D01*
X127678317Y-109026186D01*
X127637641Y-108988209D01*
X127550416Y-108923803D01*
X127492818Y-108949318D01*
X127422554Y-109072393D01*
X127394908Y-109117129D01*
X127302113Y-109171679D01*
X127191566Y-109110230D01*
X127062033Y-108932302D01*
X127001052Y-108839290D01*
X126915133Y-108766503D01*
X126850679Y-108809613D01*
X126801438Y-108969513D01*
X126794744Y-108999032D01*
X126729154Y-109122517D01*
X126627954Y-109133723D01*
X126496827Y-109031493D01*
X126491324Y-109025462D01*
X126400817Y-108950328D01*
X126337334Y-108964102D01*
X126291889Y-109076712D01*
X126255493Y-109298085D01*
X126241588Y-109393126D01*
X126194572Y-109566203D01*
X126132648Y-109623551D01*
X126097959Y-109617642D01*
X126050467Y-109560703D01*
X126045808Y-109539238D01*
X125991121Y-109534533D01*
X125985886Y-109538562D01*
X125947501Y-109627599D01*
X125931776Y-109775418D01*
X125927229Y-109839544D01*
X125881432Y-109955769D01*
X125805688Y-109988277D01*
X125724065Y-109920280D01*
X125687639Y-109879937D01*
X125612336Y-109868798D01*
X125575701Y-109941950D01*
X125541571Y-110046619D01*
X125451079Y-110178716D01*
X125339990Y-110289329D01*
X125244290Y-110335701D01*
X125205665Y-110325303D01*
X125181406Y-110255695D01*
X125196837Y-110098318D01*
X125203498Y-110052742D01*
X125207019Y-109907346D01*
X125165031Y-109860935D01*
X125155990Y-109861409D01*
X125043843Y-109920881D01*
X124924318Y-110055389D01*
X124822977Y-110229864D01*
X124765380Y-110409239D01*
X124761186Y-110433750D01*
X124701923Y-110606139D01*
X124595963Y-110691978D01*
X124590507Y-110694086D01*
X124393569Y-110828753D01*
X124266957Y-111033337D01*
X124212551Y-111281373D01*
X124025738Y-111281373D01*
X124031407Y-111253658D01*
X124036694Y-111195900D01*
X124069378Y-111023290D01*
X124121770Y-110808729D01*
X124182057Y-110598667D01*
X124238426Y-110439556D01*
X124252624Y-110365618D01*
X124187424Y-110335701D01*
X124119980Y-110313450D01*
X124109434Y-110270680D01*
X124448131Y-110270680D01*
X124449659Y-110328884D01*
X124468023Y-110460993D01*
X124500512Y-110513738D01*
X124539006Y-110481925D01*
X124615899Y-110368199D01*
X124706213Y-110200365D01*
X124824020Y-109989180D01*
X124963191Y-109795947D01*
X125096437Y-109660038D01*
X125207687Y-109597553D01*
X125280872Y-109624594D01*
X125317521Y-109723172D01*
X125337409Y-109879274D01*
X125340300Y-109939387D01*
X125365250Y-110013364D01*
X125406270Y-109991177D01*
X125451784Y-109885672D01*
X125490215Y-109709698D01*
X125491431Y-109701644D01*
X125522319Y-109545976D01*
X125558669Y-109488749D01*
X125612335Y-109510638D01*
X125652587Y-109554625D01*
X125694392Y-109660491D01*
X125699878Y-109694722D01*
X125753738Y-109742243D01*
X125774720Y-109723208D01*
X125802289Y-109617132D01*
X125813084Y-109449017D01*
X125824251Y-109253682D01*
X125859028Y-109140529D01*
X125913257Y-109135255D01*
X125982696Y-109243011D01*
X126017451Y-109305183D01*
X126090290Y-109356005D01*
X126146581Y-109301113D01*
X126169159Y-109149146D01*
X126182972Y-109005085D01*
X126230320Y-108817608D01*
X126291482Y-108656741D01*
X126433637Y-108790289D01*
X126442424Y-108798378D01*
X126571813Y-108877751D01*
X126666525Y-108866550D01*
X126703271Y-108766802D01*
X126714331Y-108718695D01*
X126786167Y-108619754D01*
X126851485Y-108595781D01*
X126933812Y-108642753D01*
X127056042Y-108775688D01*
X127123585Y-108855342D01*
X127209159Y-108939682D01*
X127261371Y-108947692D01*
X127305561Y-108891089D01*
X127330583Y-108854500D01*
X127417155Y-108807636D01*
X127569799Y-108819596D01*
X127650752Y-108832246D01*
X127746006Y-108824539D01*
X127771495Y-108765727D01*
X127774247Y-108734580D01*
X127808799Y-108688852D01*
X127897944Y-108682566D01*
X128060468Y-108716629D01*
X128315156Y-108791945D01*
X128504678Y-108850833D01*
X128646551Y-108893908D01*
X128706192Y-108910636D01*
X128727092Y-108897735D01*
X128720643Y-108820869D01*
X128671709Y-108710400D01*
X128595446Y-108607783D01*
X128545015Y-108562884D01*
X128419255Y-108507973D01*
X128239383Y-108513116D01*
X128138259Y-108520942D01*
X128011332Y-108506667D01*
X127960888Y-108465684D01*
X128007910Y-108407561D01*
X128069924Y-108342713D01*
X128048294Y-108296190D01*
X127953434Y-108315856D01*
X127952677Y-108316261D01*
X127832630Y-108368750D01*
X127765831Y-108342174D01*
X127708475Y-108219261D01*
X127693930Y-108183267D01*
X127639852Y-108106278D01*
X127579383Y-108130243D01*
X127502928Y-108187717D01*
X127423189Y-108171371D01*
X127353097Y-108043056D01*
X127311743Y-107947160D01*
X127263335Y-107925111D01*
X127176165Y-107993237D01*
X127110387Y-108050650D01*
X127053262Y-108071233D01*
X127000437Y-108016802D01*
X126921188Y-107872851D01*
X126826715Y-107694813D01*
X126824339Y-107887687D01*
X126808157Y-108013455D01*
X126747405Y-108073160D01*
X126639422Y-108026326D01*
X126481872Y-107872851D01*
X126332641Y-107723476D01*
X126230690Y-107669091D01*
X126184615Y-107718883D01*
X126194916Y-107872851D01*
X126205109Y-107928595D01*
X126213000Y-108029025D01*
X126175282Y-108068326D01*
X126069307Y-108055355D01*
X125872430Y-107998968D01*
X125793645Y-107978100D01*
X125617502Y-107950341D01*
X125497785Y-107957187D01*
X125496613Y-107957607D01*
X125430261Y-107991257D01*
X125434680Y-108043837D01*
X125512621Y-108151354D01*
X125562707Y-108218047D01*
X125625340Y-108340003D01*
X125594468Y-108412293D01*
X125467016Y-108455405D01*
X125391995Y-108480720D01*
X125239032Y-108568771D01*
X125086631Y-108688141D01*
X124969638Y-108810006D01*
X124922897Y-108905539D01*
X124945195Y-108943471D01*
X125041589Y-108970748D01*
X125060675Y-108971295D01*
X125149296Y-109003202D01*
X125140229Y-109058290D01*
X125035257Y-109100148D01*
X125003981Y-109108513D01*
X124901393Y-109199486D01*
X124805543Y-109395909D01*
X124774598Y-109472516D01*
X124674268Y-109682524D01*
X124574492Y-109850163D01*
X124495541Y-110002767D01*
X124448131Y-110270680D01*
X124109434Y-110270680D01*
X124097140Y-110220817D01*
X124150224Y-110071928D01*
X124275873Y-109883931D01*
X124336962Y-109805545D01*
X124506346Y-109553977D01*
X124598391Y-109339324D01*
X124626168Y-109133589D01*
X124634733Y-109047687D01*
X124724347Y-108817530D01*
X124892631Y-108594690D01*
X125116137Y-108413621D01*
X125148542Y-108393763D01*
X125271372Y-108317406D01*
X125333985Y-108276669D01*
X125325309Y-108246438D01*
X125250161Y-108177548D01*
X125196532Y-108125620D01*
X125171839Y-108021367D01*
X125235278Y-107924105D01*
X125367254Y-107847837D01*
X125548172Y-107806567D01*
X125758438Y-107814299D01*
X125792294Y-107819922D01*
X125915398Y-107831666D01*
X125957506Y-107799271D01*
X125948386Y-107705723D01*
X125942413Y-107604329D01*
X125970852Y-107529303D01*
X125981832Y-107525074D01*
X126092799Y-107535808D01*
X126285601Y-107593782D01*
X126540526Y-107693322D01*
X126563439Y-107702241D01*
X126624752Y-107696903D01*
X126629545Y-107599915D01*
X126646138Y-107479297D01*
X126717204Y-107438302D01*
X126815161Y-107481263D01*
X126911827Y-107607430D01*
X126915384Y-107614297D01*
X126983839Y-107729859D01*
X127038461Y-107753314D01*
X127112806Y-107700139D01*
X127229196Y-107619745D01*
X127324933Y-107634295D01*
X127408295Y-107762219D01*
X127454019Y-107853148D01*
X127498009Y-107877738D01*
X127557603Y-107811923D01*
X127613823Y-107755523D01*
X127716614Y-107735982D01*
X127797841Y-107810438D01*
X127830841Y-107964048D01*
X127830841Y-108147989D01*
X128003203Y-108025256D01*
X128076764Y-107975448D01*
X128211876Y-107911751D01*
X128284169Y-107937793D01*
X128305607Y-108054741D01*
X128316897Y-108121792D01*
X128409123Y-108284299D01*
X128599560Y-108493277D01*
X128708979Y-108608264D01*
X128855571Y-108802431D01*
X128902961Y-108897735D01*
X128938806Y-108969822D01*
G37*
G36*
X125020800Y-115736168D02*
G01*
X124997967Y-115861743D01*
X124983053Y-116047734D01*
X124964131Y-116159749D01*
X124915312Y-116210935D01*
X124914262Y-116210909D01*
X124882105Y-116159128D01*
X124879605Y-116035904D01*
X124901093Y-115882194D01*
X124940899Y-115738957D01*
X124993354Y-115647150D01*
X124998707Y-115642382D01*
X125034444Y-115638408D01*
X125020800Y-115736168D01*
G37*
G36*
X124739054Y-111454415D02*
G01*
X124733435Y-111470282D01*
X124667596Y-111605748D01*
X124597998Y-111630988D01*
X124508116Y-111553060D01*
X124465780Y-111474834D01*
X124465161Y-111430096D01*
X124566822Y-111430096D01*
X124567983Y-111460059D01*
X124596017Y-111519994D01*
X124653307Y-111467372D01*
X124661371Y-111445973D01*
X124627136Y-111374851D01*
X124596021Y-111368972D01*
X124566822Y-111430096D01*
X124465161Y-111430096D01*
X124463817Y-111332995D01*
X124533216Y-111215514D01*
X124656972Y-111166542D01*
X124727204Y-111169660D01*
X124789733Y-111200259D01*
X124791104Y-111286132D01*
X124741665Y-111445973D01*
X124739054Y-111454415D01*
G37*
%TD*%
M02*
