%TF.GenerationSoftware,KiCad,Pcbnew,7.0.11+dfsg-1build4*%
%TF.CreationDate,2025-06-01T15:33:29-04:00*%
%TF.ProjectId,tek-cap-pcb,74656b2d-6361-4702-9d70-63622e6b6963,A*%
%TF.SameCoordinates,Original*%
%TF.FileFunction,Copper,L2,Bot*%
%TF.FilePolarity,Positive*%
%FSLAX46Y46*%
G04 Gerber Fmt 4.6, Leading zero omitted, Abs format (unit mm)*
G04 Created by KiCad (PCBNEW 7.0.11+dfsg-1build4) date 2025-06-01 15:33:29*
%MOMM*%
%LPD*%
G01*
G04 APERTURE LIST*
%TA.AperFunction,ComponentPad*%
%ADD10R,4.000000X4.000000*%
%TD*%
%TA.AperFunction,ComponentPad*%
%ADD11C,4.000000*%
%TD*%
%TA.AperFunction,ComponentPad*%
%ADD12C,5.000000*%
%TD*%
G04 APERTURE END LIST*
D10*
%TO.P,C1,1*%
%TO.N,Earth*%
X122000000Y-101600000D03*
D11*
%TO.P,C1,2*%
%TO.N,-26V*%
X132000000Y-101600000D03*
%TD*%
D12*
%TO.P,H5,1,1*%
%TO.N,-26V*%
X136525000Y-111125000D03*
%TD*%
%TO.P,H4,1,1*%
%TO.N,-26V*%
X117475000Y-111125000D03*
%TD*%
%TO.P,H3,1,1*%
%TO.N,-26V*%
X136525000Y-92075000D03*
%TD*%
%TO.P,H2,1,1*%
%TO.N,-26V*%
X117475000Y-92075000D03*
%TD*%
%TO.P,H1,1,1*%
%TO.N,Earth*%
X127000000Y-93218000D03*
%TD*%
%TA.AperFunction,Conductor*%
%TO.N,-26V*%
G36*
X127413769Y-84605608D02*
G01*
X128228362Y-84645010D01*
X128234333Y-84645443D01*
X128761004Y-84696513D01*
X129046072Y-84724155D01*
X129052023Y-84724877D01*
X129859029Y-84842717D01*
X129864922Y-84843723D01*
X130665281Y-85000414D01*
X130671131Y-85001706D01*
X131463005Y-85196886D01*
X131468772Y-85198456D01*
X131859514Y-85315056D01*
X132250248Y-85431654D01*
X132255947Y-85433505D01*
X133025272Y-85704194D01*
X133030876Y-85706319D01*
X133786235Y-86013866D01*
X133791728Y-86016259D01*
X134531320Y-86359928D01*
X134536655Y-86362565D01*
X135258848Y-86741601D01*
X135264059Y-86744499D01*
X135814701Y-87068355D01*
X135967032Y-87157948D01*
X135972123Y-87161110D01*
X136654315Y-87608047D01*
X136659246Y-87611451D01*
X137319023Y-88090807D01*
X137323785Y-88094445D01*
X137959669Y-88605147D01*
X137964249Y-88609012D01*
X138574704Y-89149828D01*
X138579058Y-89153877D01*
X139110042Y-89672181D01*
X139162676Y-89723558D01*
X139166855Y-89727839D01*
X139722279Y-90325064D01*
X139726233Y-90329528D01*
X140252133Y-90952864D01*
X140255881Y-90957529D01*
X140732855Y-91581733D01*
X140751067Y-91605567D01*
X140754589Y-91610415D01*
X141217873Y-92281597D01*
X141221157Y-92286610D01*
X141651469Y-92979386D01*
X141654507Y-92984551D01*
X142050851Y-93697315D01*
X142053636Y-93702621D01*
X142415086Y-94433713D01*
X142417611Y-94439148D01*
X142743306Y-95186822D01*
X142745566Y-95192372D01*
X143034766Y-95954930D01*
X143036755Y-95960583D01*
X143288770Y-96736205D01*
X143290484Y-96741947D01*
X143504738Y-97528865D01*
X143506172Y-97534684D01*
X143682155Y-98331022D01*
X143683306Y-98336903D01*
X143820608Y-99140799D01*
X143821474Y-99146728D01*
X143919779Y-99956344D01*
X143920357Y-99962309D01*
X143979430Y-100775698D01*
X143979720Y-100781684D01*
X143999427Y-101597004D01*
X143999427Y-101602996D01*
X143979720Y-102418315D01*
X143979430Y-102424301D01*
X143920357Y-103237690D01*
X143919779Y-103243655D01*
X143821474Y-104053271D01*
X143820608Y-104059200D01*
X143683306Y-104863096D01*
X143682155Y-104868977D01*
X143506172Y-105665315D01*
X143504738Y-105671134D01*
X143290484Y-106458052D01*
X143288770Y-106463794D01*
X143036755Y-107239416D01*
X143034766Y-107245069D01*
X142745566Y-108007627D01*
X142743306Y-108013177D01*
X142417611Y-108760851D01*
X142415086Y-108766286D01*
X142053636Y-109497378D01*
X142050851Y-109502684D01*
X141654507Y-110215448D01*
X141651469Y-110220613D01*
X141221157Y-110913389D01*
X141217873Y-110918402D01*
X140754589Y-111589584D01*
X140751067Y-111594432D01*
X140255886Y-112242463D01*
X140252133Y-112247135D01*
X139726243Y-112870460D01*
X139722269Y-112874946D01*
X139166862Y-113472153D01*
X139162676Y-113476441D01*
X138579075Y-114046106D01*
X138574687Y-114050187D01*
X137964249Y-114590987D01*
X137959669Y-114594852D01*
X137323785Y-115105554D01*
X137319023Y-115109192D01*
X136659246Y-115588548D01*
X136654315Y-115591952D01*
X135972123Y-116038889D01*
X135967032Y-116042051D01*
X135264072Y-116455492D01*
X135258835Y-116458405D01*
X134536673Y-116837425D01*
X134531301Y-116840080D01*
X133791729Y-117183739D01*
X133786235Y-117186133D01*
X133030876Y-117493680D01*
X133025272Y-117495805D01*
X132255947Y-117766494D01*
X132250248Y-117768345D01*
X131468780Y-118001540D01*
X131462998Y-118003115D01*
X130671132Y-118198292D01*
X130665281Y-118199585D01*
X129864929Y-118356274D01*
X129859022Y-118357283D01*
X129052021Y-118475122D01*
X129046072Y-118475844D01*
X128234336Y-118554555D01*
X128228359Y-118554989D01*
X127413770Y-118594391D01*
X127407779Y-118594536D01*
X126592221Y-118594536D01*
X126586230Y-118594391D01*
X125771640Y-118554989D01*
X125765663Y-118554555D01*
X124953927Y-118475844D01*
X124947978Y-118475122D01*
X124140977Y-118357283D01*
X124135070Y-118356274D01*
X123334718Y-118199585D01*
X123328867Y-118198292D01*
X122537001Y-118003115D01*
X122531219Y-118001540D01*
X121749751Y-117768345D01*
X121744052Y-117766494D01*
X120974727Y-117495805D01*
X120969123Y-117493680D01*
X120213764Y-117186133D01*
X120208270Y-117183739D01*
X119468698Y-116840080D01*
X119463326Y-116837425D01*
X118741164Y-116458405D01*
X118735927Y-116455492D01*
X118032967Y-116042051D01*
X118027876Y-116038889D01*
X117345684Y-115591952D01*
X117340753Y-115588548D01*
X116680976Y-115109192D01*
X116676214Y-115105554D01*
X116040330Y-114594852D01*
X116035750Y-114590987D01*
X115509759Y-114125000D01*
X115425297Y-114050173D01*
X115420939Y-114046120D01*
X114837316Y-113476434D01*
X114833137Y-113472153D01*
X114780666Y-113415733D01*
X114277718Y-112874932D01*
X114273768Y-112870473D01*
X113747856Y-112247123D01*
X113744113Y-112242463D01*
X113713498Y-112202398D01*
X113248925Y-111594422D01*
X113245410Y-111589584D01*
X113165545Y-111473880D01*
X112924733Y-111125003D01*
X114469916Y-111125003D01*
X114490235Y-111473869D01*
X114490236Y-111473880D01*
X114550914Y-111818002D01*
X114550916Y-111818011D01*
X114651145Y-112152800D01*
X114789555Y-112473670D01*
X114789561Y-112473683D01*
X114964289Y-112776322D01*
X115172967Y-113056625D01*
X115181148Y-113065296D01*
X116428664Y-111817780D01*
X116567855Y-111992320D01*
X116737299Y-112140358D01*
X116784808Y-112168743D01*
X115537818Y-113415733D01*
X115537819Y-113415734D01*
X115680484Y-113535445D01*
X115972461Y-113727480D01*
X116284739Y-113884314D01*
X116284745Y-113884316D01*
X116613130Y-114003838D01*
X116613133Y-114003839D01*
X116953171Y-114084429D01*
X117300276Y-114124999D01*
X117300277Y-114125000D01*
X117649723Y-114125000D01*
X117649723Y-114124999D01*
X117996827Y-114084429D01*
X117996829Y-114084429D01*
X118336866Y-114003839D01*
X118336869Y-114003838D01*
X118665254Y-113884316D01*
X118665260Y-113884314D01*
X118977538Y-113727480D01*
X119269509Y-113535449D01*
X119269510Y-113535448D01*
X119412179Y-113415734D01*
X119412180Y-113415733D01*
X118165126Y-112168678D01*
X118300747Y-112070144D01*
X118456239Y-111907512D01*
X118517801Y-111814249D01*
X119768849Y-113065297D01*
X119768851Y-113065296D01*
X119777022Y-113056636D01*
X119777033Y-113056623D01*
X119985710Y-112776322D01*
X120160438Y-112473683D01*
X120160444Y-112473670D01*
X120298854Y-112152800D01*
X120399083Y-111818011D01*
X120399085Y-111818002D01*
X120459763Y-111473880D01*
X120459764Y-111473869D01*
X120480084Y-111125003D01*
X133519916Y-111125003D01*
X133540235Y-111473869D01*
X133540236Y-111473880D01*
X133600914Y-111818002D01*
X133600916Y-111818011D01*
X133701145Y-112152800D01*
X133839555Y-112473670D01*
X133839561Y-112473683D01*
X134014289Y-112776322D01*
X134222967Y-113056625D01*
X134231148Y-113065296D01*
X135478664Y-111817780D01*
X135617855Y-111992320D01*
X135787299Y-112140358D01*
X135834808Y-112168743D01*
X134587818Y-113415733D01*
X134587819Y-113415734D01*
X134730484Y-113535445D01*
X135022461Y-113727480D01*
X135334739Y-113884314D01*
X135334745Y-113884316D01*
X135663130Y-114003838D01*
X135663133Y-114003839D01*
X136003171Y-114084429D01*
X136350276Y-114124999D01*
X136350277Y-114125000D01*
X136699723Y-114125000D01*
X136699723Y-114124999D01*
X137046827Y-114084429D01*
X137046829Y-114084429D01*
X137386866Y-114003839D01*
X137386869Y-114003838D01*
X137715254Y-113884316D01*
X137715260Y-113884314D01*
X138027538Y-113727480D01*
X138319509Y-113535449D01*
X138319510Y-113535448D01*
X138462179Y-113415734D01*
X138462180Y-113415733D01*
X137215126Y-112168678D01*
X137350747Y-112070144D01*
X137506239Y-111907512D01*
X137567801Y-111814248D01*
X138818850Y-113065297D01*
X138818851Y-113065296D01*
X138827022Y-113056636D01*
X138827033Y-113056623D01*
X139035710Y-112776322D01*
X139210438Y-112473683D01*
X139210444Y-112473670D01*
X139348854Y-112152800D01*
X139449083Y-111818011D01*
X139449085Y-111818002D01*
X139509763Y-111473880D01*
X139509764Y-111473869D01*
X139530084Y-111125003D01*
X139530084Y-111124996D01*
X139509764Y-110776130D01*
X139509763Y-110776119D01*
X139449085Y-110431997D01*
X139449083Y-110431988D01*
X139348854Y-110097199D01*
X139210444Y-109776329D01*
X139210438Y-109776316D01*
X139035710Y-109473677D01*
X138827032Y-109193374D01*
X138818850Y-109184702D01*
X137571334Y-110432218D01*
X137432145Y-110257680D01*
X137262701Y-110109642D01*
X137215190Y-110081255D01*
X138462180Y-108834265D01*
X138462179Y-108834264D01*
X138319519Y-108714557D01*
X138027538Y-108522519D01*
X137715260Y-108365685D01*
X137715254Y-108365683D01*
X137386869Y-108246161D01*
X137386866Y-108246160D01*
X137046828Y-108165570D01*
X136699723Y-108125000D01*
X136350277Y-108125000D01*
X136003172Y-108165570D01*
X136003170Y-108165570D01*
X135663133Y-108246160D01*
X135663130Y-108246161D01*
X135334745Y-108365683D01*
X135334739Y-108365685D01*
X135022461Y-108522519D01*
X134730480Y-108714557D01*
X134587819Y-108834264D01*
X134587818Y-108834265D01*
X135834874Y-110081321D01*
X135699253Y-110179856D01*
X135543761Y-110342488D01*
X135482198Y-110435751D01*
X134231148Y-109184701D01*
X134231147Y-109184702D01*
X134222976Y-109193363D01*
X134222972Y-109193368D01*
X134014289Y-109473677D01*
X133839561Y-109776316D01*
X133839555Y-109776329D01*
X133701145Y-110097199D01*
X133600916Y-110431988D01*
X133600914Y-110431997D01*
X133540236Y-110776119D01*
X133540235Y-110776130D01*
X133519916Y-111124996D01*
X133519916Y-111125003D01*
X120480084Y-111125003D01*
X120480084Y-111124996D01*
X120459764Y-110776130D01*
X120459763Y-110776119D01*
X120399085Y-110431997D01*
X120399083Y-110431988D01*
X120298854Y-110097199D01*
X120160444Y-109776329D01*
X120160438Y-109776316D01*
X119985710Y-109473677D01*
X119777032Y-109193374D01*
X119768850Y-109184702D01*
X118521334Y-110432217D01*
X118382145Y-110257680D01*
X118212701Y-110109642D01*
X118165190Y-110081255D01*
X119412180Y-108834265D01*
X119412179Y-108834264D01*
X119269519Y-108714557D01*
X118977538Y-108522519D01*
X118665260Y-108365685D01*
X118665254Y-108365683D01*
X118336869Y-108246161D01*
X118336866Y-108246160D01*
X117996828Y-108165570D01*
X117649723Y-108125000D01*
X117300277Y-108125000D01*
X116953172Y-108165570D01*
X116953170Y-108165570D01*
X116613133Y-108246160D01*
X116613130Y-108246161D01*
X116284745Y-108365683D01*
X116284739Y-108365685D01*
X115972461Y-108522519D01*
X115680480Y-108714557D01*
X115537819Y-108834264D01*
X115537818Y-108834265D01*
X116784874Y-110081321D01*
X116649253Y-110179856D01*
X116493761Y-110342488D01*
X116432198Y-110435751D01*
X115181148Y-109184701D01*
X115181147Y-109184702D01*
X115172976Y-109193363D01*
X115172972Y-109193368D01*
X114964289Y-109473677D01*
X114789561Y-109776316D01*
X114789555Y-109776329D01*
X114651145Y-110097199D01*
X114550916Y-110431988D01*
X114550914Y-110431997D01*
X114490236Y-110776119D01*
X114490235Y-110776130D01*
X114469916Y-111124996D01*
X114469916Y-111125003D01*
X112924733Y-111125003D01*
X112782124Y-110918399D01*
X112778842Y-110913389D01*
X112480823Y-110433596D01*
X112348524Y-110220604D01*
X112345492Y-110215448D01*
X112325700Y-110179856D01*
X111949147Y-109502683D01*
X111946363Y-109497378D01*
X111584913Y-108766286D01*
X111582388Y-108760851D01*
X111410249Y-108365685D01*
X111256689Y-108013168D01*
X111254433Y-108007627D01*
X110993840Y-107320500D01*
X110965229Y-107245058D01*
X110963244Y-107239416D01*
X110962636Y-107237546D01*
X110711225Y-106463783D01*
X110709515Y-106458052D01*
X110661728Y-106282540D01*
X110495260Y-105671132D01*
X110493827Y-105665315D01*
X110484797Y-105624454D01*
X110317843Y-104868974D01*
X110316693Y-104863096D01*
X110315474Y-104855961D01*
X110192549Y-104136241D01*
X116199500Y-104136241D01*
X116199792Y-104155598D01*
X116200017Y-104163059D01*
X116200891Y-104182373D01*
X116218734Y-104477360D01*
X116222233Y-104515858D01*
X116224042Y-104530755D01*
X116229863Y-104568995D01*
X116282452Y-104855961D01*
X116290574Y-104893792D01*
X116294154Y-104908317D01*
X116304551Y-104945608D01*
X116391323Y-105224070D01*
X116403940Y-105260635D01*
X116409259Y-105274658D01*
X116424064Y-105310399D01*
X116543794Y-105576427D01*
X116543801Y-105576441D01*
X116543804Y-105576448D01*
X116560701Y-105611156D01*
X116567679Y-105624454D01*
X116586691Y-105658165D01*
X116586694Y-105658170D01*
X116737615Y-105907825D01*
X116758621Y-105940312D01*
X116758638Y-105940339D01*
X116764760Y-105949207D01*
X116767129Y-105952639D01*
X116785469Y-105977564D01*
X116790057Y-105983799D01*
X116969971Y-106213443D01*
X116994733Y-106243154D01*
X116994750Y-106243174D01*
X117004680Y-106254382D01*
X117031187Y-106282540D01*
X117237459Y-106488812D01*
X117265617Y-106515319D01*
X117276825Y-106525249D01*
X117276840Y-106525262D01*
X117276844Y-106525265D01*
X117306555Y-106550027D01*
X117536211Y-106729951D01*
X117567357Y-106752869D01*
X117577607Y-106759943D01*
X117579687Y-106761379D01*
X117612181Y-106782388D01*
X117861830Y-106933305D01*
X117895557Y-106952326D01*
X117895580Y-106952338D01*
X117908818Y-106959286D01*
X117935912Y-106972476D01*
X117943572Y-106976205D01*
X118209600Y-107095935D01*
X118245341Y-107110740D01*
X118258603Y-107115769D01*
X118259363Y-107116058D01*
X118282925Y-107124188D01*
X118295921Y-107128673D01*
X118574422Y-107215457D01*
X118611662Y-107225839D01*
X118611671Y-107225841D01*
X118611681Y-107225844D01*
X118617453Y-107227266D01*
X118626200Y-107229423D01*
X118664055Y-107237550D01*
X118951003Y-107290136D01*
X118989252Y-107295958D01*
X119004117Y-107297763D01*
X119042650Y-107301264D01*
X119337591Y-107319105D01*
X119356939Y-107319982D01*
X119364426Y-107320208D01*
X119383751Y-107320500D01*
X119383759Y-107320500D01*
X124456241Y-107320500D01*
X124456249Y-107320500D01*
X124475574Y-107320208D01*
X124483061Y-107319982D01*
X124502409Y-107319105D01*
X124797349Y-107301264D01*
X124835882Y-107297763D01*
X124850747Y-107295958D01*
X124888996Y-107290136D01*
X125175944Y-107237550D01*
X125213799Y-107229423D01*
X125228337Y-107225839D01*
X125265577Y-107215457D01*
X125544078Y-107128673D01*
X125567869Y-107120462D01*
X125580635Y-107116058D01*
X125580646Y-107116053D01*
X125580657Y-107116050D01*
X125594658Y-107110740D01*
X125630399Y-107095935D01*
X125896427Y-106976205D01*
X125916938Y-106966219D01*
X125931180Y-106959286D01*
X125936703Y-106956387D01*
X125944442Y-106952326D01*
X125978169Y-106933305D01*
X126227818Y-106782388D01*
X126260312Y-106761379D01*
X126272635Y-106752873D01*
X126272641Y-106752869D01*
X126303787Y-106729951D01*
X126303796Y-106729944D01*
X126533438Y-106550031D01*
X126563174Y-106525249D01*
X126574382Y-106515319D01*
X126602540Y-106488812D01*
X126808812Y-106282540D01*
X126835319Y-106254382D01*
X126845249Y-106243174D01*
X126870031Y-106213438D01*
X127049944Y-105983796D01*
X127072873Y-105952635D01*
X127081379Y-105940312D01*
X127102388Y-105907818D01*
X127253305Y-105658169D01*
X127272326Y-105624442D01*
X127279284Y-105611183D01*
X127279286Y-105611180D01*
X127286219Y-105596938D01*
X127296205Y-105576427D01*
X127415935Y-105310399D01*
X127430740Y-105274658D01*
X127436050Y-105260657D01*
X127448673Y-105224078D01*
X127535457Y-104945577D01*
X127545839Y-104908337D01*
X127549423Y-104893799D01*
X127557550Y-104855944D01*
X127610136Y-104568996D01*
X127615958Y-104530747D01*
X127617763Y-104515882D01*
X127621264Y-104477349D01*
X127639105Y-104182409D01*
X127639982Y-104163061D01*
X127640208Y-104155574D01*
X127640500Y-104136249D01*
X127640500Y-101600005D01*
X129495057Y-101600005D01*
X129514807Y-101913942D01*
X129514808Y-101913949D01*
X129573755Y-102222958D01*
X129670963Y-102522132D01*
X129670965Y-102522137D01*
X129804900Y-102806761D01*
X129804903Y-102806767D01*
X129973457Y-103072367D01*
X129973460Y-103072371D01*
X130064286Y-103182160D01*
X131138349Y-102108097D01*
X131205146Y-102215263D01*
X131345268Y-102362671D01*
X131490085Y-102463466D01*
X130414971Y-103538579D01*
X130414972Y-103538581D01*
X130657772Y-103714985D01*
X130657790Y-103714996D01*
X130933447Y-103866540D01*
X130933455Y-103866544D01*
X131225926Y-103982340D01*
X131530620Y-104060573D01*
X131530629Y-104060575D01*
X131842701Y-104099999D01*
X131842715Y-104100000D01*
X132157285Y-104100000D01*
X132157298Y-104099999D01*
X132469370Y-104060575D01*
X132469379Y-104060573D01*
X132774073Y-103982340D01*
X133066544Y-103866544D01*
X133066552Y-103866540D01*
X133342209Y-103714996D01*
X133342219Y-103714990D01*
X133585026Y-103538579D01*
X133585027Y-103538579D01*
X132508125Y-102461678D01*
X132574214Y-102424996D01*
X132728531Y-102292520D01*
X132853021Y-102131692D01*
X132863625Y-102110073D01*
X133935712Y-103182160D01*
X134026544Y-103072364D01*
X134195096Y-102806767D01*
X134195099Y-102806761D01*
X134329034Y-102522137D01*
X134329036Y-102522132D01*
X134426244Y-102222958D01*
X134485191Y-101913949D01*
X134485192Y-101913942D01*
X134504943Y-101600005D01*
X134504943Y-101599994D01*
X134485192Y-101286057D01*
X134485191Y-101286050D01*
X134426244Y-100977041D01*
X134329036Y-100677867D01*
X134329034Y-100677862D01*
X134195099Y-100393238D01*
X134195096Y-100393232D01*
X134026542Y-100127632D01*
X134026539Y-100127628D01*
X133935712Y-100017838D01*
X132861649Y-101091901D01*
X132794854Y-100984737D01*
X132654732Y-100837329D01*
X132509914Y-100736532D01*
X133585027Y-99661419D01*
X133585026Y-99661417D01*
X133342227Y-99485014D01*
X133342209Y-99485003D01*
X133066552Y-99333459D01*
X133066544Y-99333455D01*
X132774073Y-99217659D01*
X132469379Y-99139426D01*
X132469370Y-99139424D01*
X132157298Y-99100000D01*
X131842701Y-99100000D01*
X131530629Y-99139424D01*
X131530620Y-99139426D01*
X131225926Y-99217659D01*
X130933455Y-99333455D01*
X130933447Y-99333459D01*
X130657787Y-99485004D01*
X130657782Y-99485007D01*
X130414972Y-99661418D01*
X130414971Y-99661419D01*
X131491874Y-100738321D01*
X131425786Y-100775004D01*
X131271469Y-100907480D01*
X131146979Y-101068308D01*
X131136374Y-101089926D01*
X130064286Y-100017838D01*
X130064285Y-100017838D01*
X129973459Y-100127629D01*
X129973457Y-100127632D01*
X129804903Y-100393232D01*
X129804900Y-100393238D01*
X129670965Y-100677862D01*
X129670963Y-100677867D01*
X129573755Y-100977041D01*
X129514808Y-101286050D01*
X129514807Y-101286057D01*
X129495057Y-101599994D01*
X129495057Y-101600005D01*
X127640500Y-101600005D01*
X127640500Y-98554500D01*
X127660185Y-98487461D01*
X127712989Y-98441706D01*
X127764500Y-98430500D01*
X129540014Y-98430500D01*
X129578652Y-98429332D01*
X129578664Y-98429331D01*
X129578673Y-98429331D01*
X129877349Y-98411264D01*
X129915882Y-98407763D01*
X129930747Y-98405958D01*
X129968996Y-98400136D01*
X130255944Y-98347550D01*
X130293799Y-98339423D01*
X130308337Y-98335839D01*
X130345577Y-98325457D01*
X130624078Y-98238673D01*
X130647869Y-98230462D01*
X130660635Y-98226058D01*
X130660646Y-98226053D01*
X130660657Y-98226050D01*
X130674658Y-98220740D01*
X130710399Y-98205935D01*
X130976427Y-98086205D01*
X130996938Y-98076219D01*
X131011180Y-98069286D01*
X131016703Y-98066387D01*
X131024442Y-98062326D01*
X131058169Y-98043305D01*
X131307818Y-97892388D01*
X131340312Y-97871379D01*
X131352635Y-97862873D01*
X131352641Y-97862869D01*
X131383787Y-97839951D01*
X131613443Y-97660027D01*
X131619385Y-97655074D01*
X131643174Y-97635249D01*
X131654382Y-97625319D01*
X131682540Y-97598812D01*
X131888812Y-97392540D01*
X131915319Y-97364382D01*
X131925249Y-97353174D01*
X131950031Y-97323438D01*
X132129944Y-97093796D01*
X132152873Y-97062635D01*
X132161379Y-97050312D01*
X132182388Y-97017818D01*
X132333305Y-96768169D01*
X132352326Y-96734442D01*
X132359284Y-96721183D01*
X132359286Y-96721180D01*
X132366219Y-96706938D01*
X132376205Y-96686427D01*
X132495935Y-96420399D01*
X132510740Y-96384658D01*
X132516050Y-96370657D01*
X132528673Y-96334078D01*
X132615457Y-96055577D01*
X132625839Y-96018337D01*
X132629423Y-96003799D01*
X132637550Y-95965944D01*
X132690136Y-95678996D01*
X132695958Y-95640747D01*
X132697763Y-95625882D01*
X132701264Y-95587349D01*
X132719105Y-95292409D01*
X132719982Y-95273061D01*
X132720208Y-95265574D01*
X132720500Y-95246249D01*
X132720500Y-92075003D01*
X133519916Y-92075003D01*
X133540235Y-92423869D01*
X133540236Y-92423880D01*
X133600914Y-92768002D01*
X133600916Y-92768011D01*
X133701145Y-93102800D01*
X133839555Y-93423670D01*
X133839561Y-93423683D01*
X134014289Y-93726322D01*
X134222967Y-94006625D01*
X134231148Y-94015296D01*
X135478664Y-92767780D01*
X135617855Y-92942320D01*
X135787299Y-93090358D01*
X135834808Y-93118743D01*
X134587818Y-94365733D01*
X134587819Y-94365734D01*
X134730484Y-94485445D01*
X135022461Y-94677480D01*
X135334739Y-94834314D01*
X135334745Y-94834316D01*
X135663130Y-94953838D01*
X135663133Y-94953839D01*
X136003171Y-95034429D01*
X136350276Y-95074999D01*
X136350277Y-95075000D01*
X136699723Y-95075000D01*
X136699723Y-95074999D01*
X137046827Y-95034429D01*
X137046829Y-95034429D01*
X137386866Y-94953839D01*
X137386869Y-94953838D01*
X137715254Y-94834316D01*
X137715260Y-94834314D01*
X138027538Y-94677480D01*
X138319509Y-94485449D01*
X138319510Y-94485448D01*
X138462179Y-94365734D01*
X138462180Y-94365733D01*
X137215126Y-93118678D01*
X137350747Y-93020144D01*
X137506239Y-92857512D01*
X137567801Y-92764248D01*
X138818850Y-94015297D01*
X138818851Y-94015296D01*
X138827022Y-94006636D01*
X138827033Y-94006623D01*
X139035710Y-93726322D01*
X139210438Y-93423683D01*
X139210444Y-93423670D01*
X139348854Y-93102800D01*
X139449083Y-92768011D01*
X139449085Y-92768002D01*
X139509763Y-92423880D01*
X139509764Y-92423869D01*
X139530084Y-92075003D01*
X139530084Y-92074996D01*
X139509764Y-91726130D01*
X139509763Y-91726119D01*
X139449085Y-91381997D01*
X139449083Y-91381988D01*
X139348854Y-91047199D01*
X139210444Y-90726329D01*
X139210438Y-90726316D01*
X139035710Y-90423677D01*
X138827032Y-90143374D01*
X138818850Y-90134702D01*
X137571334Y-91382218D01*
X137432145Y-91207680D01*
X137262701Y-91059642D01*
X137215190Y-91031255D01*
X138462180Y-89784265D01*
X138462179Y-89784264D01*
X138319519Y-89664557D01*
X138027538Y-89472519D01*
X137715260Y-89315685D01*
X137715254Y-89315683D01*
X137386869Y-89196161D01*
X137386866Y-89196160D01*
X137046828Y-89115570D01*
X136699723Y-89075000D01*
X136350277Y-89075000D01*
X136003172Y-89115570D01*
X136003170Y-89115570D01*
X135663133Y-89196160D01*
X135663130Y-89196161D01*
X135334745Y-89315683D01*
X135334739Y-89315685D01*
X135022461Y-89472519D01*
X134730480Y-89664557D01*
X134587819Y-89784264D01*
X134587818Y-89784265D01*
X135834874Y-91031321D01*
X135699253Y-91129856D01*
X135543761Y-91292488D01*
X135482198Y-91385751D01*
X134231148Y-90134701D01*
X134231147Y-90134702D01*
X134222976Y-90143363D01*
X134222972Y-90143368D01*
X134014289Y-90423677D01*
X133839561Y-90726316D01*
X133839555Y-90726329D01*
X133701145Y-91047199D01*
X133600916Y-91381988D01*
X133600914Y-91381997D01*
X133540236Y-91726119D01*
X133540235Y-91726130D01*
X133519916Y-92074996D01*
X133519916Y-92075003D01*
X132720500Y-92075003D01*
X132720500Y-91443750D01*
X132720208Y-91424425D01*
X132719982Y-91416938D01*
X132719105Y-91397590D01*
X132701264Y-91102650D01*
X132697763Y-91064117D01*
X132695958Y-91049252D01*
X132690136Y-91011003D01*
X132637550Y-90724055D01*
X132629423Y-90686200D01*
X132625839Y-90671662D01*
X132615457Y-90634422D01*
X132528673Y-90355921D01*
X132518021Y-90325053D01*
X132516058Y-90319363D01*
X132515769Y-90318603D01*
X132510740Y-90305341D01*
X132495935Y-90269600D01*
X132376205Y-90003572D01*
X132372476Y-89995912D01*
X132359286Y-89968818D01*
X132352338Y-89955580D01*
X132352326Y-89955557D01*
X132333305Y-89921830D01*
X132182388Y-89672181D01*
X132161379Y-89639687D01*
X132159943Y-89637607D01*
X132152869Y-89627357D01*
X132129951Y-89596211D01*
X131950027Y-89366555D01*
X131925265Y-89336844D01*
X131925262Y-89336840D01*
X131925249Y-89336825D01*
X131915319Y-89325617D01*
X131888812Y-89297459D01*
X131682540Y-89091187D01*
X131654382Y-89064680D01*
X131643174Y-89054750D01*
X131613437Y-89029967D01*
X131383789Y-88850050D01*
X131352637Y-88827127D01*
X131352631Y-88827123D01*
X131352619Y-88827114D01*
X131340331Y-88818632D01*
X131307831Y-88797618D01*
X131058165Y-88646691D01*
X131024454Y-88627679D01*
X131011156Y-88620701D01*
X130976448Y-88603804D01*
X130976441Y-88603801D01*
X130976427Y-88603794D01*
X130710399Y-88484064D01*
X130674691Y-88469272D01*
X130674686Y-88469270D01*
X130674672Y-88469264D01*
X130660704Y-88463966D01*
X130654843Y-88461943D01*
X130624082Y-88451327D01*
X130624063Y-88451321D01*
X130345590Y-88364546D01*
X130308341Y-88354161D01*
X130308292Y-88354149D01*
X130293799Y-88350576D01*
X130293793Y-88350574D01*
X130293782Y-88350572D01*
X130255961Y-88342452D01*
X130101891Y-88314217D01*
X129968996Y-88289863D01*
X129968992Y-88289862D01*
X129968990Y-88289862D01*
X129930758Y-88284043D01*
X129915906Y-88282239D01*
X129877342Y-88278733D01*
X129582373Y-88260891D01*
X129563059Y-88260017D01*
X129555598Y-88259792D01*
X129541080Y-88259573D01*
X129536249Y-88259500D01*
X124463751Y-88259500D01*
X124459066Y-88259570D01*
X124444401Y-88259792D01*
X124436940Y-88260017D01*
X124417626Y-88260891D01*
X124122637Y-88278734D01*
X124084134Y-88282233D01*
X124074369Y-88283419D01*
X124069257Y-88284040D01*
X124069247Y-88284041D01*
X124069243Y-88284042D01*
X124031011Y-88289861D01*
X123744041Y-88342451D01*
X123706251Y-88350563D01*
X123691699Y-88354149D01*
X123654408Y-88364544D01*
X123375928Y-88451323D01*
X123339306Y-88463961D01*
X123333358Y-88466217D01*
X123325311Y-88469270D01*
X123325292Y-88469277D01*
X123325289Y-88469279D01*
X123289589Y-88484068D01*
X123023591Y-88603784D01*
X122988844Y-88620699D01*
X122975601Y-88627648D01*
X122941823Y-88646696D01*
X122692158Y-88797625D01*
X122659683Y-88818622D01*
X122647383Y-88827112D01*
X122616223Y-88850038D01*
X122386552Y-89029975D01*
X122356808Y-89054763D01*
X122345637Y-89064661D01*
X122345628Y-89064669D01*
X122345624Y-89064673D01*
X122334654Y-89075000D01*
X122317451Y-89091194D01*
X122111194Y-89297451D01*
X122084661Y-89325637D01*
X122074763Y-89336808D01*
X122049975Y-89366552D01*
X121870038Y-89596223D01*
X121847106Y-89627390D01*
X121838627Y-89639675D01*
X121817624Y-89672160D01*
X121666687Y-89921842D01*
X121647676Y-89955550D01*
X121640708Y-89968828D01*
X121623804Y-90003550D01*
X121504056Y-90269617D01*
X121489277Y-90305294D01*
X121489270Y-90305311D01*
X121489259Y-90305341D01*
X121483958Y-90319315D01*
X121471334Y-90355892D01*
X121450212Y-90423677D01*
X121384542Y-90634422D01*
X121379282Y-90653288D01*
X121374154Y-90671681D01*
X121370574Y-90686206D01*
X121362452Y-90724037D01*
X121309863Y-91011003D01*
X121304042Y-91049243D01*
X121302233Y-91064140D01*
X121298734Y-91102638D01*
X121280891Y-91397625D01*
X121280017Y-91416939D01*
X121279792Y-91424400D01*
X121279500Y-91443757D01*
X121279500Y-97025500D01*
X121259815Y-97092539D01*
X121207011Y-97138294D01*
X121155500Y-97149500D01*
X119379984Y-97149500D01*
X119341351Y-97150666D01*
X119042639Y-97168734D01*
X119004134Y-97172233D01*
X118994369Y-97173419D01*
X118989257Y-97174040D01*
X118989247Y-97174041D01*
X118989243Y-97174042D01*
X118951011Y-97179861D01*
X118664041Y-97232451D01*
X118626251Y-97240563D01*
X118611699Y-97244149D01*
X118574408Y-97254544D01*
X118295928Y-97341323D01*
X118259306Y-97353961D01*
X118253358Y-97356217D01*
X118245311Y-97359270D01*
X118245292Y-97359277D01*
X118245289Y-97359279D01*
X118209589Y-97374068D01*
X117943591Y-97493784D01*
X117908844Y-97510699D01*
X117895601Y-97517648D01*
X117861823Y-97536696D01*
X117612158Y-97687625D01*
X117579683Y-97708622D01*
X117567383Y-97717112D01*
X117536223Y-97740038D01*
X117306552Y-97919975D01*
X117276808Y-97944763D01*
X117265637Y-97954661D01*
X117237451Y-97981194D01*
X117031194Y-98187451D01*
X117004661Y-98215637D01*
X116994763Y-98226808D01*
X116969975Y-98256552D01*
X116790038Y-98486223D01*
X116767106Y-98517390D01*
X116758627Y-98529675D01*
X116737624Y-98562160D01*
X116586687Y-98811842D01*
X116567676Y-98845550D01*
X116560708Y-98858828D01*
X116543804Y-98893550D01*
X116424056Y-99159617D01*
X116409277Y-99195294D01*
X116409270Y-99195311D01*
X116404548Y-99207758D01*
X116403958Y-99209315D01*
X116391334Y-99245892D01*
X116364049Y-99333455D01*
X116304542Y-99524422D01*
X116299282Y-99543288D01*
X116294154Y-99561681D01*
X116290580Y-99576181D01*
X116282447Y-99614063D01*
X116259277Y-99740500D01*
X116229862Y-99901007D01*
X116224043Y-99939238D01*
X116222233Y-99954140D01*
X116218734Y-99992638D01*
X116200891Y-100287625D01*
X116200017Y-100306939D01*
X116199792Y-100314400D01*
X116199500Y-100333757D01*
X116199500Y-104136241D01*
X110192549Y-104136241D01*
X110179389Y-104059191D01*
X110178525Y-104053271D01*
X110080218Y-103243644D01*
X110079642Y-103237690D01*
X110067636Y-103072371D01*
X110020567Y-102424270D01*
X110020280Y-102418346D01*
X110000572Y-101602978D01*
X110000572Y-101597004D01*
X110020280Y-100781651D01*
X110020567Y-100775731D01*
X110079643Y-99962294D01*
X110080220Y-99956344D01*
X110080491Y-99954117D01*
X110178527Y-99146712D01*
X110179391Y-99140799D01*
X110186360Y-99100000D01*
X110316695Y-98336891D01*
X110317844Y-98331022D01*
X110338253Y-98238673D01*
X110493829Y-97534673D01*
X110495261Y-97528865D01*
X110500207Y-97510699D01*
X110709521Y-96741924D01*
X110711222Y-96736227D01*
X110963252Y-95960558D01*
X110965224Y-95954954D01*
X111254441Y-95192349D01*
X111256683Y-95186845D01*
X111582395Y-94439132D01*
X111584913Y-94433713D01*
X111618522Y-94365734D01*
X111946372Y-93702603D01*
X111949138Y-93697333D01*
X112345508Y-92984523D01*
X112348513Y-92979413D01*
X112778855Y-92286589D01*
X112782111Y-92281619D01*
X112924728Y-92075003D01*
X114469916Y-92075003D01*
X114490235Y-92423869D01*
X114490236Y-92423880D01*
X114550914Y-92768002D01*
X114550916Y-92768011D01*
X114651145Y-93102800D01*
X114789555Y-93423670D01*
X114789561Y-93423683D01*
X114964289Y-93726322D01*
X115172967Y-94006625D01*
X115181148Y-94015296D01*
X116428664Y-92767780D01*
X116567855Y-92942320D01*
X116737299Y-93090358D01*
X116784808Y-93118743D01*
X115537818Y-94365733D01*
X115537819Y-94365734D01*
X115680484Y-94485445D01*
X115972461Y-94677480D01*
X116284739Y-94834314D01*
X116284745Y-94834316D01*
X116613130Y-94953838D01*
X116613133Y-94953839D01*
X116953171Y-95034429D01*
X117300276Y-95074999D01*
X117300277Y-95075000D01*
X117649723Y-95075000D01*
X117649723Y-95074999D01*
X117996827Y-95034429D01*
X117996829Y-95034429D01*
X118336866Y-94953839D01*
X118336869Y-94953838D01*
X118665254Y-94834316D01*
X118665260Y-94834314D01*
X118977538Y-94677480D01*
X119269509Y-94485449D01*
X119269510Y-94485448D01*
X119412179Y-94365734D01*
X119412180Y-94365733D01*
X118165126Y-93118678D01*
X118300747Y-93020144D01*
X118456239Y-92857512D01*
X118517801Y-92764249D01*
X119768849Y-94015297D01*
X119768851Y-94015296D01*
X119777022Y-94006636D01*
X119777033Y-94006623D01*
X119985710Y-93726322D01*
X120160438Y-93423683D01*
X120160444Y-93423670D01*
X120298854Y-93102800D01*
X120399083Y-92768011D01*
X120399085Y-92768002D01*
X120459763Y-92423880D01*
X120459764Y-92423869D01*
X120480084Y-92075003D01*
X120480084Y-92074996D01*
X120459764Y-91726130D01*
X120459763Y-91726119D01*
X120399085Y-91381997D01*
X120399083Y-91381988D01*
X120298854Y-91047199D01*
X120160444Y-90726329D01*
X120160438Y-90726316D01*
X119985710Y-90423677D01*
X119777032Y-90143374D01*
X119768850Y-90134702D01*
X118521334Y-91382217D01*
X118382145Y-91207680D01*
X118212701Y-91059642D01*
X118165190Y-91031255D01*
X119412180Y-89784265D01*
X119412179Y-89784264D01*
X119269519Y-89664557D01*
X118977538Y-89472519D01*
X118665260Y-89315685D01*
X118665254Y-89315683D01*
X118336869Y-89196161D01*
X118336866Y-89196160D01*
X117996828Y-89115570D01*
X117649723Y-89075000D01*
X117300277Y-89075000D01*
X116953172Y-89115570D01*
X116953170Y-89115570D01*
X116613133Y-89196160D01*
X116613130Y-89196161D01*
X116284745Y-89315683D01*
X116284739Y-89315685D01*
X115972461Y-89472519D01*
X115680480Y-89664557D01*
X115537819Y-89784264D01*
X115537818Y-89784265D01*
X116784874Y-91031321D01*
X116649253Y-91129856D01*
X116493761Y-91292488D01*
X116432198Y-91385751D01*
X115181148Y-90134701D01*
X115181147Y-90134702D01*
X115172976Y-90143363D01*
X115172972Y-90143368D01*
X114964289Y-90423677D01*
X114789561Y-90726316D01*
X114789555Y-90726329D01*
X114651145Y-91047199D01*
X114550916Y-91381988D01*
X114550914Y-91381997D01*
X114490236Y-91726119D01*
X114490235Y-91726130D01*
X114469916Y-92074996D01*
X114469916Y-92075003D01*
X112924728Y-92075003D01*
X113245431Y-91610385D01*
X113248910Y-91605596D01*
X113744138Y-90957504D01*
X113747839Y-90952896D01*
X114273786Y-90329505D01*
X114277699Y-90325087D01*
X114833164Y-89727818D01*
X114837296Y-89723585D01*
X115420961Y-89153858D01*
X115425274Y-89149846D01*
X116035767Y-88608996D01*
X116040312Y-88605161D01*
X116676236Y-88094427D01*
X116680952Y-88090824D01*
X117340766Y-87611441D01*
X117345670Y-87608056D01*
X118027890Y-87161101D01*
X118032952Y-87157956D01*
X118735958Y-86744489D01*
X118741133Y-86741610D01*
X119463360Y-86362556D01*
X119468662Y-86359936D01*
X120208286Y-86016252D01*
X120213748Y-86013872D01*
X120969130Y-85706315D01*
X120974719Y-85704196D01*
X121744056Y-85433503D01*
X121749751Y-85431654D01*
X122018097Y-85351578D01*
X122531238Y-85198453D01*
X122536983Y-85196888D01*
X123328876Y-85001704D01*
X123334709Y-85000415D01*
X124135084Y-84843722D01*
X124140963Y-84842718D01*
X124947981Y-84724876D01*
X124953924Y-84724155D01*
X125765669Y-84645443D01*
X125771634Y-84645010D01*
X126586230Y-84605608D01*
X126592221Y-84605464D01*
X127407779Y-84605464D01*
X127413769Y-84605608D01*
G37*
%TD.AperFunction*%
%TD*%
%TA.AperFunction,Conductor*%
%TO.N,Earth*%
G36*
X129543736Y-88900226D02*
G01*
X129838678Y-88918066D01*
X129853541Y-88919871D01*
X130140489Y-88972457D01*
X130155027Y-88976041D01*
X130280211Y-89015049D01*
X130433533Y-89062826D01*
X130447529Y-89068135D01*
X130713557Y-89187865D01*
X130726816Y-89194823D01*
X130851640Y-89270281D01*
X130976471Y-89345744D01*
X130988782Y-89354242D01*
X131218430Y-89534159D01*
X131229638Y-89544089D01*
X131435910Y-89750361D01*
X131445840Y-89761569D01*
X131625753Y-89991211D01*
X131634259Y-90003534D01*
X131785176Y-90253183D01*
X131792134Y-90266442D01*
X131911864Y-90532470D01*
X131917174Y-90546471D01*
X132003958Y-90824972D01*
X132007542Y-90839510D01*
X132060128Y-91126458D01*
X132061933Y-91141323D01*
X132079774Y-91436263D01*
X132080000Y-91443750D01*
X132080000Y-95246249D01*
X132079774Y-95253736D01*
X132061933Y-95548676D01*
X132060128Y-95563541D01*
X132007542Y-95850489D01*
X132003958Y-95865027D01*
X131917174Y-96143528D01*
X131911864Y-96157529D01*
X131792134Y-96423557D01*
X131785176Y-96436816D01*
X131634259Y-96686465D01*
X131625753Y-96698788D01*
X131445840Y-96928430D01*
X131435910Y-96939638D01*
X131229638Y-97145910D01*
X131218430Y-97155840D01*
X130988788Y-97335753D01*
X130976465Y-97344259D01*
X130726816Y-97495176D01*
X130713557Y-97502134D01*
X130447529Y-97621864D01*
X130433528Y-97627174D01*
X130155027Y-97713958D01*
X130140489Y-97717542D01*
X129853541Y-97770128D01*
X129838676Y-97771933D01*
X129540000Y-97790000D01*
X127000000Y-97790000D01*
X127000000Y-100329991D01*
X127000000Y-104136249D01*
X126999774Y-104143736D01*
X126981933Y-104438676D01*
X126980128Y-104453541D01*
X126927542Y-104740489D01*
X126923958Y-104755027D01*
X126837174Y-105033528D01*
X126831864Y-105047529D01*
X126712134Y-105313557D01*
X126705176Y-105326816D01*
X126554259Y-105576465D01*
X126545753Y-105588788D01*
X126365840Y-105818430D01*
X126355910Y-105829638D01*
X126149638Y-106035910D01*
X126138430Y-106045840D01*
X125908788Y-106225753D01*
X125896465Y-106234259D01*
X125646816Y-106385176D01*
X125633557Y-106392134D01*
X125367529Y-106511864D01*
X125353528Y-106517174D01*
X125075027Y-106603958D01*
X125060489Y-106607542D01*
X124773541Y-106660128D01*
X124758676Y-106661933D01*
X124463736Y-106679774D01*
X124456249Y-106680000D01*
X119383751Y-106680000D01*
X119376264Y-106679774D01*
X119081323Y-106661933D01*
X119066458Y-106660128D01*
X118779510Y-106607542D01*
X118764972Y-106603958D01*
X118486471Y-106517174D01*
X118472470Y-106511864D01*
X118206442Y-106392134D01*
X118193183Y-106385176D01*
X117943534Y-106234259D01*
X117931211Y-106225753D01*
X117701569Y-106045840D01*
X117690361Y-106035910D01*
X117484089Y-105829638D01*
X117474159Y-105818430D01*
X117294246Y-105588788D01*
X117285744Y-105576471D01*
X117210281Y-105451640D01*
X117134823Y-105326816D01*
X117127865Y-105313557D01*
X117008135Y-105047529D01*
X117002825Y-105033528D01*
X116916041Y-104755027D01*
X116912457Y-104740489D01*
X116859871Y-104453541D01*
X116858066Y-104438676D01*
X116840226Y-104143736D01*
X116840000Y-104136249D01*
X116840000Y-103647844D01*
X119500000Y-103647844D01*
X119506401Y-103707372D01*
X119506403Y-103707379D01*
X119556645Y-103842086D01*
X119556649Y-103842093D01*
X119642809Y-103957187D01*
X119642812Y-103957190D01*
X119757906Y-104043350D01*
X119757913Y-104043354D01*
X119892620Y-104093596D01*
X119892627Y-104093598D01*
X119952155Y-104099999D01*
X119952172Y-104100000D01*
X121750000Y-104100000D01*
X121750000Y-102569521D01*
X121898310Y-102600000D01*
X122050712Y-102600000D01*
X122202337Y-102584581D01*
X122250000Y-102569626D01*
X122250000Y-104100000D01*
X124047828Y-104100000D01*
X124047844Y-104099999D01*
X124107372Y-104093598D01*
X124107379Y-104093596D01*
X124242086Y-104043354D01*
X124242093Y-104043350D01*
X124357187Y-103957190D01*
X124357190Y-103957187D01*
X124443350Y-103842093D01*
X124443354Y-103842086D01*
X124493596Y-103707379D01*
X124493598Y-103707372D01*
X124499999Y-103647844D01*
X124500000Y-103647827D01*
X124500000Y-101850000D01*
X122968246Y-101850000D01*
X122993566Y-101752209D01*
X123003867Y-101549090D01*
X122973367Y-101350000D01*
X124500000Y-101350000D01*
X124500000Y-99552172D01*
X124499999Y-99552155D01*
X124493598Y-99492627D01*
X124493596Y-99492620D01*
X124443354Y-99357913D01*
X124443350Y-99357906D01*
X124357190Y-99242812D01*
X124357187Y-99242809D01*
X124242093Y-99156649D01*
X124242086Y-99156645D01*
X124107379Y-99106403D01*
X124107372Y-99106401D01*
X124047844Y-99100000D01*
X122250000Y-99100000D01*
X122250000Y-100630478D01*
X122101690Y-100600000D01*
X121949288Y-100600000D01*
X121797663Y-100615419D01*
X121750000Y-100630373D01*
X121750000Y-99100000D01*
X119952155Y-99100000D01*
X119892627Y-99106401D01*
X119892620Y-99106403D01*
X119757913Y-99156645D01*
X119757906Y-99156649D01*
X119642812Y-99242809D01*
X119642809Y-99242812D01*
X119556649Y-99357906D01*
X119556645Y-99357913D01*
X119506403Y-99492620D01*
X119506401Y-99492627D01*
X119500000Y-99552155D01*
X119500000Y-101350000D01*
X121031754Y-101350000D01*
X121006434Y-101447791D01*
X120996133Y-101650910D01*
X121026633Y-101850000D01*
X119500000Y-101850000D01*
X119500000Y-103647844D01*
X116840000Y-103647844D01*
X116840000Y-100333750D01*
X116840226Y-100326263D01*
X116858066Y-100031323D01*
X116859871Y-100016458D01*
X116912457Y-99729510D01*
X116916041Y-99714972D01*
X117002828Y-99436461D01*
X117008135Y-99422470D01*
X117127865Y-99156442D01*
X117134823Y-99143183D01*
X117157057Y-99106403D01*
X117285749Y-98893520D01*
X117294236Y-98881224D01*
X117474166Y-98651560D01*
X117484081Y-98640369D01*
X117690369Y-98434081D01*
X117701560Y-98424166D01*
X117931224Y-98244236D01*
X117943520Y-98235749D01*
X118193183Y-98084822D01*
X118206442Y-98077865D01*
X118472470Y-97958135D01*
X118486461Y-97952828D01*
X118764972Y-97866040D01*
X118779510Y-97862457D01*
X119066462Y-97809870D01*
X119081319Y-97808066D01*
X119380000Y-97790000D01*
X121920000Y-97790000D01*
X121920000Y-93218003D01*
X123994916Y-93218003D01*
X124015235Y-93566869D01*
X124015236Y-93566880D01*
X124075914Y-93911002D01*
X124075916Y-93911011D01*
X124176145Y-94245800D01*
X124314555Y-94566670D01*
X124314561Y-94566683D01*
X124489289Y-94869322D01*
X124697967Y-95149625D01*
X124706148Y-95158296D01*
X125953664Y-93910780D01*
X126092855Y-94085320D01*
X126262299Y-94233358D01*
X126309808Y-94261743D01*
X125062818Y-95508733D01*
X125062819Y-95508734D01*
X125205484Y-95628445D01*
X125497461Y-95820480D01*
X125809739Y-95977314D01*
X125809745Y-95977316D01*
X126138130Y-96096838D01*
X126138133Y-96096839D01*
X126478171Y-96177429D01*
X126825276Y-96217999D01*
X126825277Y-96218000D01*
X127174723Y-96218000D01*
X127174723Y-96217999D01*
X127521827Y-96177429D01*
X127521829Y-96177429D01*
X127861866Y-96096839D01*
X127861869Y-96096838D01*
X128190254Y-95977316D01*
X128190260Y-95977314D01*
X128502538Y-95820480D01*
X128794509Y-95628449D01*
X128794510Y-95628448D01*
X128937179Y-95508734D01*
X128937180Y-95508733D01*
X127690126Y-94261678D01*
X127825747Y-94163144D01*
X127981239Y-94000512D01*
X128042801Y-93907248D01*
X129293849Y-95158297D01*
X129293851Y-95158296D01*
X129302022Y-95149636D01*
X129302033Y-95149623D01*
X129510710Y-94869322D01*
X129685438Y-94566683D01*
X129685444Y-94566670D01*
X129823854Y-94245800D01*
X129924083Y-93911011D01*
X129924085Y-93911002D01*
X129984763Y-93566880D01*
X129984764Y-93566869D01*
X130005084Y-93218003D01*
X130005084Y-93217996D01*
X129984764Y-92869130D01*
X129984763Y-92869119D01*
X129924085Y-92524997D01*
X129924083Y-92524988D01*
X129823854Y-92190199D01*
X129685444Y-91869329D01*
X129685438Y-91869316D01*
X129510710Y-91566677D01*
X129302032Y-91286374D01*
X129293850Y-91277702D01*
X128046334Y-92525218D01*
X127907145Y-92350680D01*
X127737701Y-92202642D01*
X127690190Y-92174255D01*
X128937180Y-90927265D01*
X128937179Y-90927264D01*
X128794519Y-90807557D01*
X128502538Y-90615519D01*
X128190260Y-90458685D01*
X128190254Y-90458683D01*
X127861869Y-90339161D01*
X127861866Y-90339160D01*
X127521828Y-90258570D01*
X127174723Y-90218000D01*
X126825277Y-90218000D01*
X126478172Y-90258570D01*
X126478170Y-90258570D01*
X126138133Y-90339160D01*
X126138130Y-90339161D01*
X125809745Y-90458683D01*
X125809739Y-90458685D01*
X125497461Y-90615519D01*
X125205480Y-90807557D01*
X125062819Y-90927264D01*
X125062818Y-90927265D01*
X126309874Y-92174321D01*
X126174253Y-92272856D01*
X126018761Y-92435488D01*
X125957198Y-92528751D01*
X124706148Y-91277701D01*
X124706147Y-91277702D01*
X124697976Y-91286363D01*
X124697972Y-91286368D01*
X124489289Y-91566677D01*
X124314561Y-91869316D01*
X124314555Y-91869329D01*
X124176145Y-92190199D01*
X124075916Y-92524988D01*
X124075914Y-92524997D01*
X124015236Y-92869119D01*
X124015235Y-92869130D01*
X123994916Y-93217996D01*
X123994916Y-93218003D01*
X121920000Y-93218003D01*
X121920000Y-91443750D01*
X121920226Y-91436263D01*
X121938066Y-91141323D01*
X121939871Y-91126458D01*
X121992457Y-90839510D01*
X121996041Y-90824972D01*
X122061309Y-90615519D01*
X122082828Y-90546461D01*
X122088135Y-90532470D01*
X122207865Y-90266442D01*
X122214823Y-90253183D01*
X122236092Y-90218000D01*
X122365749Y-90003520D01*
X122374236Y-89991224D01*
X122554166Y-89761560D01*
X122564081Y-89750369D01*
X122770369Y-89544081D01*
X122781560Y-89534166D01*
X123011224Y-89354236D01*
X123023520Y-89345749D01*
X123273183Y-89194822D01*
X123286442Y-89187865D01*
X123552470Y-89068135D01*
X123566461Y-89062828D01*
X123844972Y-88976040D01*
X123859510Y-88972457D01*
X124146462Y-88919870D01*
X124161319Y-88918066D01*
X124456264Y-88900226D01*
X124463751Y-88900000D01*
X129536249Y-88900000D01*
X129543736Y-88900226D01*
G37*
%TD.AperFunction*%
%TD*%
M02*
