%TF.GenerationSoftware,KiCad,Pcbnew,7.0.11+dfsg-1build4*%
%TF.CreationDate,2025-06-01T15:33:29-04:00*%
%TF.ProjectId,tek-cap-pcb,74656b2d-6361-4702-9d70-63622e6b6963,A*%
%TF.SameCoordinates,Original*%
%TF.FileFunction,Legend,Top*%
%TF.FilePolarity,Positive*%
%FSLAX46Y46*%
G04 Gerber Fmt 4.6, Leading zero omitted, Abs format (unit mm)*
G04 Created by KiCad (PCBNEW 7.0.11+dfsg-1build4) date 2025-06-01 15:33:29*
%MOMM*%
%LPD*%
G01*
G04 APERTURE LIST*
%ADD10C,0.100000*%
%ADD11C,0.150000*%
%ADD12C,0.120000*%
G04 APERTURE END LIST*
D10*
X122380951Y-106822419D02*
X122380951Y-107536704D01*
X122380951Y-107536704D02*
X122333332Y-107679561D01*
X122333332Y-107679561D02*
X122238094Y-107774800D01*
X122238094Y-107774800D02*
X122095237Y-107822419D01*
X122095237Y-107822419D02*
X121999999Y-107822419D01*
X123333332Y-107822419D02*
X122857142Y-107822419D01*
X122857142Y-107822419D02*
X122857142Y-106822419D01*
X124238094Y-107727180D02*
X124190475Y-107774800D01*
X124190475Y-107774800D02*
X124047618Y-107822419D01*
X124047618Y-107822419D02*
X123952380Y-107822419D01*
X123952380Y-107822419D02*
X123809523Y-107774800D01*
X123809523Y-107774800D02*
X123714285Y-107679561D01*
X123714285Y-107679561D02*
X123666666Y-107584323D01*
X123666666Y-107584323D02*
X123619047Y-107393847D01*
X123619047Y-107393847D02*
X123619047Y-107250990D01*
X123619047Y-107250990D02*
X123666666Y-107060514D01*
X123666666Y-107060514D02*
X123714285Y-106965276D01*
X123714285Y-106965276D02*
X123809523Y-106870038D01*
X123809523Y-106870038D02*
X123952380Y-106822419D01*
X123952380Y-106822419D02*
X124047618Y-106822419D01*
X124047618Y-106822419D02*
X124190475Y-106870038D01*
X124190475Y-106870038D02*
X124238094Y-106917657D01*
X124952380Y-106822419D02*
X124952380Y-107536704D01*
X124952380Y-107536704D02*
X124904761Y-107679561D01*
X124904761Y-107679561D02*
X124809523Y-107774800D01*
X124809523Y-107774800D02*
X124666666Y-107822419D01*
X124666666Y-107822419D02*
X124571428Y-107822419D01*
X125904761Y-107822419D02*
X125428571Y-107822419D01*
X125428571Y-107822419D02*
X125428571Y-106822419D01*
X126809523Y-107727180D02*
X126761904Y-107774800D01*
X126761904Y-107774800D02*
X126619047Y-107822419D01*
X126619047Y-107822419D02*
X126523809Y-107822419D01*
X126523809Y-107822419D02*
X126380952Y-107774800D01*
X126380952Y-107774800D02*
X126285714Y-107679561D01*
X126285714Y-107679561D02*
X126238095Y-107584323D01*
X126238095Y-107584323D02*
X126190476Y-107393847D01*
X126190476Y-107393847D02*
X126190476Y-107250990D01*
X126190476Y-107250990D02*
X126238095Y-107060514D01*
X126238095Y-107060514D02*
X126285714Y-106965276D01*
X126285714Y-106965276D02*
X126380952Y-106870038D01*
X126380952Y-106870038D02*
X126523809Y-106822419D01*
X126523809Y-106822419D02*
X126619047Y-106822419D01*
X126619047Y-106822419D02*
X126761904Y-106870038D01*
X126761904Y-106870038D02*
X126809523Y-106917657D01*
X127523809Y-106822419D02*
X127523809Y-107536704D01*
X127523809Y-107536704D02*
X127476190Y-107679561D01*
X127476190Y-107679561D02*
X127380952Y-107774800D01*
X127380952Y-107774800D02*
X127238095Y-107822419D01*
X127238095Y-107822419D02*
X127142857Y-107822419D01*
X128476190Y-107822419D02*
X128000000Y-107822419D01*
X128000000Y-107822419D02*
X128000000Y-106822419D01*
X129380952Y-107727180D02*
X129333333Y-107774800D01*
X129333333Y-107774800D02*
X129190476Y-107822419D01*
X129190476Y-107822419D02*
X129095238Y-107822419D01*
X129095238Y-107822419D02*
X128952381Y-107774800D01*
X128952381Y-107774800D02*
X128857143Y-107679561D01*
X128857143Y-107679561D02*
X128809524Y-107584323D01*
X128809524Y-107584323D02*
X128761905Y-107393847D01*
X128761905Y-107393847D02*
X128761905Y-107250990D01*
X128761905Y-107250990D02*
X128809524Y-107060514D01*
X128809524Y-107060514D02*
X128857143Y-106965276D01*
X128857143Y-106965276D02*
X128952381Y-106870038D01*
X128952381Y-106870038D02*
X129095238Y-106822419D01*
X129095238Y-106822419D02*
X129190476Y-106822419D01*
X129190476Y-106822419D02*
X129333333Y-106870038D01*
X129333333Y-106870038D02*
X129380952Y-106917657D01*
X130095238Y-106822419D02*
X130095238Y-107536704D01*
X130095238Y-107536704D02*
X130047619Y-107679561D01*
X130047619Y-107679561D02*
X129952381Y-107774800D01*
X129952381Y-107774800D02*
X129809524Y-107822419D01*
X129809524Y-107822419D02*
X129714286Y-107822419D01*
X131047619Y-107822419D02*
X130571429Y-107822419D01*
X130571429Y-107822419D02*
X130571429Y-106822419D01*
X131952381Y-107727180D02*
X131904762Y-107774800D01*
X131904762Y-107774800D02*
X131761905Y-107822419D01*
X131761905Y-107822419D02*
X131666667Y-107822419D01*
X131666667Y-107822419D02*
X131523810Y-107774800D01*
X131523810Y-107774800D02*
X131428572Y-107679561D01*
X131428572Y-107679561D02*
X131380953Y-107584323D01*
X131380953Y-107584323D02*
X131333334Y-107393847D01*
X131333334Y-107393847D02*
X131333334Y-107250990D01*
X131333334Y-107250990D02*
X131380953Y-107060514D01*
X131380953Y-107060514D02*
X131428572Y-106965276D01*
X131428572Y-106965276D02*
X131523810Y-106870038D01*
X131523810Y-106870038D02*
X131666667Y-106822419D01*
X131666667Y-106822419D02*
X131761905Y-106822419D01*
X131761905Y-106822419D02*
X131904762Y-106870038D01*
X131904762Y-106870038D02*
X131952381Y-106917657D01*
D11*
X126833333Y-99419580D02*
X126785714Y-99467200D01*
X126785714Y-99467200D02*
X126642857Y-99514819D01*
X126642857Y-99514819D02*
X126547619Y-99514819D01*
X126547619Y-99514819D02*
X126404762Y-99467200D01*
X126404762Y-99467200D02*
X126309524Y-99371961D01*
X126309524Y-99371961D02*
X126261905Y-99276723D01*
X126261905Y-99276723D02*
X126214286Y-99086247D01*
X126214286Y-99086247D02*
X126214286Y-98943390D01*
X126214286Y-98943390D02*
X126261905Y-98752914D01*
X126261905Y-98752914D02*
X126309524Y-98657676D01*
X126309524Y-98657676D02*
X126404762Y-98562438D01*
X126404762Y-98562438D02*
X126547619Y-98514819D01*
X126547619Y-98514819D02*
X126642857Y-98514819D01*
X126642857Y-98514819D02*
X126785714Y-98562438D01*
X126785714Y-98562438D02*
X126833333Y-98610057D01*
X127785714Y-99514819D02*
X127214286Y-99514819D01*
X127500000Y-99514819D02*
X127500000Y-98514819D01*
X127500000Y-98514819D02*
X127404762Y-98657676D01*
X127404762Y-98657676D02*
X127309524Y-98752914D01*
X127309524Y-98752914D02*
X127214286Y-98800533D01*
D12*
%TO.C,C1*%
X117202000Y-97818000D02*
X120702000Y-97818000D01*
X118952000Y-96068000D02*
X118952000Y-99568000D01*
%TD*%
M02*
